<?xml version="1.0" encoding="UTF-8"?>
<svg version="1.1" xmlns="http://www.w3.org/2000/svg" width="512" height="512">
<path d="M0 0 C4.23653539 0.00231718 8.47306716 -0.00125596 12.70960176 -0.00397992 C20.95507679 -0.0083702 29.2005426 -0.00749186 37.44601796 -0.00456728 C44.15882085 -0.00228707 50.8716212 -0.00201191 57.58442438 -0.0030911 C59.03034568 -0.00332095 59.03034568 -0.00332095 60.50547751 -0.00355544 C62.46508315 -0.00387524 64.42468878 -0.00419945 66.38429441 -0.00452803 C84.65318872 -0.00736286 102.92207798 -0.00412699 121.19097146 0.00127234 C136.79700199 0.00574213 152.40302509 0.00495909 168.0090555 0.00035357 C186.23082947 -0.00502153 204.45259903 -0.00709208 222.67437369 -0.00403416 C224.62429984 -0.00371568 226.574226 -0.00340131 228.52415216 -0.0030911 C229.48300874 -0.00293682 230.44186532 -0.00278255 231.42977816 -0.0026236 C238.12113029 -0.00176749 244.81247958 -0.00320151 251.50383127 -0.00557065 C259.67703244 -0.00840152 267.85022403 -0.00756197 276.02342413 -0.00228991 C280.17702997 0.00030283 284.33061997 0.00142929 288.48422563 -0.00193906 C303.92079385 -0.01316087 319.35432033 0.04529056 334.78632295 0.45131183 C335.95126828 0.47328974 337.11621361 0.49526765 338.31646031 0.51791155 C356.10446506 1.08465899 368.73121063 8.47166068 380.71974885 21.13072467 C389.59395044 31.02434852 394.76234605 41.47748795 395.3366617 54.80516315 C395.37427736 55.603966 395.41189302 56.40276886 395.45064855 57.22577786 C396.02529067 71.50314821 395.86099034 85.81307148 395.85047352 100.09924269 C395.84818943 104.69781696 395.85171387 109.29638759 395.85445344 113.89496112 C395.85887819 122.87908788 395.8579494 131.86320624 395.8550408 140.84733331 C395.85277376 148.15506989 395.85247987 155.46280413 395.85356462 162.77054095 C395.85371785 163.81434282 395.85387109 164.85814469 395.85402896 165.93357691 C395.85434872 168.05466187 395.85467293 170.17574683 395.85500155 172.29683179 C395.85784669 192.14244182 395.8545845 211.98804722 395.84920119 231.83365649 C395.84473403 248.82737555 395.84551023 265.82108777 395.85011995 282.8148067 C395.8554828 302.59396882 395.85757209 322.37312688 395.85450768 342.15228963 C395.85418917 344.26516255 395.8538748 346.37803547 395.85356462 348.49090838 C395.85341034 349.53022788 395.85325607 350.56954737 395.85309712 351.6403614 C395.85223709 358.93135486 395.85368372 366.22234574 395.85604417 373.5133388 C395.8588614 382.40999585 395.85806356 391.30664407 395.85276343 400.20330012 C395.85015225 404.7342871 395.84907708 409.26525944 395.85241258 413.79624629 C395.87320406 445.05417394 395.87320406 445.05417394 395.34838045 456.47581744 C395.31959468 457.18290174 395.2908089 457.88998604 395.26115084 458.61849713 C394.38801877 473.59784481 385.07628898 485.9868781 374.71974885 496.13072467 C363.97311359 505.48700378 351.87834776 510.24773004 337.64588773 510.26215243 C336.95400296 510.26420507 336.26211818 510.2662577 335.5492672 510.26837254 C333.23164097 510.27402544 330.91407448 510.2725874 328.59644258 510.27116656 C326.91761001 510.27375118 325.23877806 510.27676462 323.55994695 510.28016996 C318.94675583 510.28823191 314.33358027 510.29002909 309.72038293 510.29076743 C304.7447289 510.2926194 299.76908292 510.3001675 294.79343355 510.30690265 C283.91309878 510.3204811 273.03276771 510.32651002 262.15242589 510.33091331 C255.35709226 510.33367673 248.56176006 510.33791429 241.7664274 510.34241748 C222.94786453 510.35460985 204.12930279 510.36490901 185.31073606 510.36829257 C184.1064317 510.36851214 182.90212734 510.3687317 181.66132892 510.36895792 C180.45415971 510.3691762 179.2469905 510.36939448 178.00324041 510.36961937 C175.55709934 510.37006283 173.11095828 510.3705094 170.66481721 510.37095904 C169.45144943 510.37118047 168.23808165 510.3714019 166.98794515 510.37163004 C147.33238485 510.37557703 127.67686165 510.39302818 108.02131569 510.41631857 C87.83564997 510.44004378 67.65000286 510.45249497 47.46432298 510.45366049 C36.13312295 510.45457663 24.80197125 510.46031348 13.47078454 510.4784801 C3.82080952 510.49389691 -5.82910224 510.49899223 -15.47908724 510.490742 C-20.40015965 510.48684102 -25.32110473 510.48773811 -30.24216139 510.50179935 C-34.75339077 510.51457133 -39.26439755 510.51331188 -43.77562677 510.50120863 C-45.40151128 510.49925733 -47.02741175 510.50230368 -48.65327389 510.511053 C-67.52196368 510.60610567 -83.13460533 506.65546827 -97.16745818 493.45860553 C-105.37109104 485.31977447 -113.89874954 471.98918231 -114.41020298 460.11324638 C-114.41369894 458.2353314 -114.41369894 458.2353314 -114.41726553 456.31947875 C-114.41991736 455.61953649 -114.42256919 454.91959423 -114.42530137 454.19844159 C-114.43300674 451.83533569 -114.43355402 449.47228164 -114.43415129 447.109164 C-114.43816514 445.40475936 -114.44260323 443.70035567 -114.44743085 441.99595314 C-114.45941154 437.29810734 -114.4650483 432.60027182 -114.469612 427.90241373 C-114.47556266 422.84079484 -114.48717407 417.77918828 -114.49790251 412.7175777 C-114.52244229 400.48432164 -114.53705776 388.25106149 -114.54996258 376.01778838 C-114.55367394 372.56238845 -114.55764723 369.10698892 -114.56171525 365.65158939 C-114.58695566 344.1950164 -114.60900936 322.73844277 -114.62144339 301.28185821 C-114.62437312 296.31001224 -114.62733477 291.33816629 -114.6303488 286.36632037 C-114.63109485 285.13058409 -114.6318409 283.89484781 -114.63260956 282.62166498 C-114.64525666 262.61413745 -114.67846969 242.60669891 -114.72015063 222.59921297 C-114.76259313 202.05768438 -114.78614128 181.51620131 -114.79136395 160.97462898 C-114.79477588 149.44154449 -114.80650506 137.90859897 -114.83946669 126.37555766 C-114.86750039 116.55057525 -114.87845202 106.72576029 -114.86727123 96.900741 C-114.86209274 91.89036764 -114.86491873 86.88034474 -114.88973677 81.87002254 C-114.91230271 77.27584659 -114.91143259 72.68227137 -114.8925329 68.08808438 C-114.88974312 66.43314969 -114.89527412 64.77817363 -114.91034584 63.12330522 C-115.06164605 45.41637844 -109.9631721 30.96386177 -97.53025115 17.88072467 C-87.33883879 8.15255833 -74.94071481 1.25250487 -60.70763171 0.81886744 C-60.0567055 0.79839498 -59.40577929 0.77792251 -58.73512804 0.75682966 C-56.57762528 0.69123076 -54.42001057 0.63318227 -52.26226103 0.57631183 C-51.5103098 0.55534029 -50.75835856 0.53436876 -49.98362092 0.51276173 C-33.32236653 0.05291628 -16.66653423 -0.0135707 0 0 Z M-19.28025115 103.13072467 C-26.61707315 113.29699372 -28.44407842 123.13164526 -27.0029074 135.51353717 C-25.09940547 145.91934769 -19.0300731 154.51099171 -10.65525115 160.75572467 C-1.00286769 167.17641042 8.12490228 169.45199788 19.71974885 168.13072467 C30.69127363 165.40316683 40.25453468 158.30034216 46.71974885 149.13072467 C52.121333 139.44004145 54.00189113 129.7416929 51.53224885 118.88072467 C47.94595416 106.5688469 41.50535424 97.86075377 30.3095926 91.32213092 C12.71317774 83.22724927 -7.36487057 87.77928085 -19.28025115 103.13072467 Z M165.4580301 222.82994342 C164.25561015 224.38357731 163.07447538 225.9542068 161.9267801 227.54869342 C161.52845979 228.07076373 161.13013948 228.59283404 160.71974885 229.13072467 C160.38974885 229.13072467 160.05974885 229.13072467 159.71974885 229.13072467 C159.38974885 219.56072467 159.05974885 209.99072467 158.71974885 200.13072467 C137.26974885 200.13072467 115.81974885 200.13072467 93.71974885 200.13072467 C93.71974885 273.72072467 93.71974885 347.31072467 93.71974885 423.13072467 C114.83974885 423.13072467 135.95974885 423.13072467 157.71974885 423.13072467 C158.54550639 415.3684227 158.54550639 415.3684227 158.86450899 407.67000079 C158.87140749 406.71174899 158.87830598 405.75349719 158.88541353 404.76620746 C158.8880269 403.751962 158.89064027 402.73771655 158.89333284 401.69273639 C158.90336336 400.04660609 158.90336336 400.04660609 158.91359651 398.36722064 C158.92756977 395.99980373 158.93948785 393.63237395 158.94954431 391.26493716 C158.96608929 387.50434201 158.98933299 383.74384143 159.01444185 379.98329425 C159.08483717 369.29615617 159.145182 358.60898498 159.1965555 347.92174029 C159.22814076 341.36786449 159.26987928 334.81409027 159.31675088 328.26030612 C159.33264378 325.77831917 159.34502303 323.2963069 159.35365808 320.81428409 C159.50037928 279.23721646 159.50037928 279.23721646 170.91506135 266.72838092 C182.26705084 256.67867594 195.20815889 255.33556905 209.71974885 256.13072467 C218.96996244 257.73945747 226.45986285 262.20844412 232.00099885 269.91197467 C233.32445565 271.94557901 234.52490412 274.01909127 235.71974885 276.13072467 C236.08071783 276.75855318 236.4416868 277.38638169 236.81359422 278.03323531 C240.30025284 284.8661468 240.295866 291.26302315 240.26564729 298.82042193 C240.27439717 300.18135 240.28488785 301.54226781 240.29697359 302.90317035 C240.32468168 306.57202479 240.32824167 310.24054103 240.3272537 313.90948486 C240.33039598 317.75324037 240.35604136 321.59684647 240.37923372 325.44052386 C240.41969705 332.70757872 240.44011159 339.97454406 240.45320761 347.24169415 C240.47208807 357.06988785 240.52217343 366.89792029 240.57045114 376.72600532 C240.64561687 392.19423668 240.67929259 407.66227338 240.71974885 423.13072467 C263.15974885 423.13072467 285.59974885 423.13072467 308.71974885 423.13072467 C308.73986167 407.77570975 308.75994349 392.4207313 308.77000272 377.06571364 C308.77549412 368.81304528 308.78240758 360.56038727 308.79518831 352.30772662 C308.80531982 345.76243874 308.81164493 339.21715876 308.81383735 332.67186326 C308.81511399 329.22286374 308.81799663 325.77388677 308.82547891 322.32489467 C308.85289538 308.04947097 308.76975296 293.78056767 308.39817643 279.50980151 C308.36172142 278.08742181 308.3279947 276.66496899 308.29729414 275.24245346 C307.8288001 254.25279802 302.11700019 233.993183 287.71974885 218.13072467 C287.1164676 217.44752154 286.51318635 216.76431842 285.89162385 216.06041217 C274.665796 204.05881572 258.28787238 195.75849513 241.85842073 194.93785357 C238.11779301 194.84841451 234.37633925 194.80873042 230.63478792 194.78062701 C229.03893537 194.7641716 227.44315328 194.73702115 225.84767854 194.69859576 C201.64409797 194.12136396 181.03242459 204.2428854 165.4580301 222.82994342 Z M-21.28025115 200.13072467 C-21.28025115 273.72072467 -21.28025115 347.31072467 -21.28025115 423.13072467 C1.15974885 423.13072467 23.59974885 423.13072467 46.71974885 423.13072467 C46.71974885 349.54072467 46.71974885 275.95072467 46.71974885 200.13072467 C24.27974885 200.13072467 1.83974885 200.13072467 -21.28025115 200.13072467 Z " fill="#FFFFFF" transform="translate(115.28025114536285,0.8692753314971924)"/>
</svg>
