<svg width="336" height="336" viewBox="0 0 336 336" fill="none" xmlns="http://www.w3.org/2000/svg">
<circle cx="168" cy="168" r="168" fill="#FFFFFA"/>
<path fill-rule="evenodd" clip-rule="evenodd" d="M320.991 237.509C293.372 260.335 258.243 274 220 274C131.082 274 59 200.127 59 109C59 77.6917 67.5085 48.42 82.2851 23.4811C33.017 52.7652 0 106.527 0 168C0 260.784 75.2162 336 168 336C235.994 336 294.553 295.607 320.991 237.509Z" fill="#F0F0EE"/>
<circle cx="136" cy="244" r="18" fill="#F0F0EE" stroke="#FFFFFA" stroke-width="4"/>
<circle cx="64.5" cy="99.5" r="9.5" fill="#F0F0EE" stroke="#FFFFFA" stroke-width="4"/>
<circle cx="177.5" cy="25.5" r="9.5" fill="#F0F0EE" stroke="#FFFFFA" stroke-width="4"/>
<circle cx="198.5" cy="107.5" r="18.5" fill="#F0F0EE" stroke="#FFFFFA" stroke-width="4"/>
<circle cx="276.5" cy="165.5" r="37.5" fill="#F0F0EE" stroke="#FFFFFA" stroke-width="4"/>
<circle cx="180" cy="175" r="21" fill="#F0F0EE" stroke="#FFFFFA" stroke-width="4"/>
<circle cx="110" cy="69" r="15" fill="#F0F0EE" stroke="#FFFFFA" stroke-width="4"/>
<circle cx="123" cy="130" r="8" fill="#F0F0EE" stroke="#FFFFFA" stroke-width="4"/>
</svg>
