<svg width="545" height="545" viewBox="0 0 545 545" fill="none" xmlns="http://www.w3.org/2000/svg">
<path fill-rule="evenodd" clip-rule="evenodd" d="M544.8 272.4C544.8 422.842 422.843 544.799 272.401 544.799C121.958 544.799 0 422.842 0 272.4C0 121.958 121.958 0 272.401 0C422.843 0 544.8 121.958 544.8 272.4Z" fill="#FFFFFA"/>
<path fill-rule="evenodd" clip-rule="evenodd" d="M199.373 191.592C199.373 224.453 172.734 251.092 139.873 251.092C107.012 251.092 80.373 224.453 80.373 191.592C80.373 158.731 107.012 132.092 139.873 132.092C172.734 132.092 199.373 158.731 199.373 191.592ZM296.953 96.5917C296.953 117.623 279.904 134.672 258.873 134.672C237.842 134.672 220.793 117.623 220.793 96.5917C220.793 75.5607 237.842 58.5117 258.873 58.5117C279.904 58.5117 296.953 75.5607 296.953 96.5917ZM293.244 201.592C293.244 215.052 282.333 225.963 268.873 225.963C255.413 225.963 244.502 215.052 244.502 201.592C244.502 188.132 255.413 177.221 268.873 177.221C282.333 177.221 293.244 188.132 293.244 201.592Z" fill="#E6E6E6" fill-opacity="0.3"/>
</svg>
