<svg xmlns="http://www.w3.org/2000/svg" version="1.1" xmlns:xlink="http://www.w3.org/1999/xlink" width="1000" height="1000"><style>
    #light-icon {
      display: inline;
    }
    #dark-icon {
      display: none;
    }

    @media (prefers-color-scheme: dark) {
      #light-icon {
        display: none;
      }
      #dark-icon {
        display: inline;
      }
    }
  </style><g id="light-icon"><svg xmlns="http://www.w3.org/2000/svg" version="1.1" xmlns:xlink="http://www.w3.org/1999/xlink" width="1000" height="1000"><g clip-path="url(#SvgjsClipPath1110)"><rect width="1000" height="1000" fill="#072142"></rect><g transform="matrix(0.7220216606498195,0,0,0.7220216606498195,-5.684341886080802e-14,-5.684341886080802e-14)"><svg xmlns="http://www.w3.org/2000/svg" version="1.1" xmlns:xlink="http://www.w3.org/1999/xlink" width="1385" height="1385"><svg width="1385" height="1385" viewBox="0 0 1385 1385" fill="none" xmlns="http://www.w3.org/2000/svg">
<path fill-rule="evenodd" clip-rule="evenodd" d="M692.4 1384.8C599.107 1384.8 508.384 1366.43 422.752 1330.21C340.262 1295.33 266.258 1245.46 202.801 1182C139.349 1118.55 89.482 1044.55 54.585 962.042C18.366 876.415 0 785.694 0 692.401C0 599.11 18.365 508.388 54.586 422.756C89.48 340.255 139.347 266.251 202.801 202.798C266.252 139.347 340.256 89.481 422.757 54.584C508.394 18.365 599.115 0 692.4 0C785.688 0 876.409 18.365 962.044 54.586C1044.54 89.479 1118.55 139.344 1182 202.797C1245.46 266.254 1295.32 340.263 1330.22 422.768C1366.44 508.389 1384.8 599.107 1384.8 692.401C1384.8 785.692 1366.43 876.414 1330.21 962.049C1295.33 1044.54 1245.46 1118.54 1182.01 1182C1118.55 1245.45 1044.54 1295.32 962.044 1330.21C876.411 1366.43 785.689 1384.8 692.4 1384.8Z" fill="#FFFFFA" fill-opacity="0.05"></path>
<path fill-rule="evenodd" clip-rule="evenodd" d="M692.4 1314.8C608.528 1314.8 526.98 1298.29 450.022 1265.74C375.876 1234.38 309.35 1189.56 252.299 1132.51C195.253 1075.46 150.422 1008.93 119.055 934.774C86.504 857.821 70 776.274 70 692.401C70 608.529 86.504 526.982 119.055 450.025C150.421 375.868 195.251 309.342 252.297 252.296C309.342 195.25 375.869 150.422 450.027 119.055C526.987 86.504 608.533 70 692.4 70C776.269 70 857.816 86.505 934.775 119.056C1008.93 150.419 1075.45 195.247 1132.5 252.295C1189.55 309.347 1234.38 375.875 1265.75 450.034C1298.3 526.981 1314.8 608.526 1314.8 692.401C1314.8 776.274 1298.29 857.821 1265.74 934.779C1234.38 1008.92 1189.56 1075.45 1132.51 1132.5C1075.46 1189.55 1008.93 1234.38 934.775 1265.74C857.817 1298.3 776.27 1314.8 692.4 1314.8Z" fill="#FFFFFA" fill-opacity="0.05"></path>
<path fill-rule="evenodd" clip-rule="evenodd" d="M692.4 1244.8C617.948 1244.8 545.575 1230.15 477.292 1201.27C411.488 1173.44 352.442 1133.65 301.796 1083.01C251.155 1032.37 211.363 973.321 183.526 907.505C154.643 839.225 140 766.853 140 692.401C140 617.949 154.643 545.576 183.526 477.294C211.362 411.482 251.153 352.435 301.796 301.794C352.434 251.154 411.481 211.362 477.296 183.526C545.58 154.645 617.951 140 692.4 140C766.851 140 839.223 154.645 907.506 183.526C973.314 211.36 1032.36 251.151 1083.01 301.793C1133.65 352.439 1173.44 411.488 1201.28 477.301C1230.16 545.573 1244.8 617.945 1244.8 692.401C1244.8 766.854 1230.16 839.227 1201.27 907.509C1173.44 973.311 1133.65 1032.36 1083.01 1083C1032.37 1133.65 973.321 1173.44 907.506 1201.27C839.223 1230.16 766.851 1244.8 692.4 1244.8Z" fill="#FFFFFA" fill-opacity="0.05"></path>
<path fill-rule="evenodd" clip-rule="evenodd" d="M692.4 1174.8C627.366 1174.8 564.169 1162.02 504.561 1136.8C447.098 1112.5 395.531 1077.75 351.294 1033.51C307.057 989.276 272.303 937.707 247.996 880.237C222.784 820.63 210 757.433 210 692.401C210 627.368 222.784 564.17 247.996 504.563C272.303 447.095 307.057 395.527 351.292 351.291C395.526 307.057 447.094 272.303 504.564 247.996C564.172 222.783 627.369 210 692.4 210C757.432 210 820.629 222.783 880.237 247.996C937.704 272.302 989.271 307.055 1033.51 351.291C1077.75 395.53 1112.5 447.1 1136.8 504.568C1162.02 564.169 1174.8 627.366 1174.8 692.401C1174.8 757.434 1162.02 820.632 1136.8 880.238C1112.5 937.702 1077.75 989.27 1033.51 1033.51C989.276 1077.74 937.708 1112.49 880.237 1136.8C820.63 1162.02 757.433 1174.8 692.4 1174.8Z" fill="#FFFFFA" fill-opacity="0.05"></path>
<path fill-rule="evenodd" clip-rule="evenodd" d="M692.4 1104.8C636.787 1104.8 582.764 1093.88 531.832 1072.33C482.71 1051.56 438.62 1021.84 400.79 984.012C362.96 946.183 333.245 902.093 312.465 852.968C290.922 802.036 280 748.013 280 692.401C280 636.787 290.922 582.764 312.465 531.832C333.244 482.707 362.961 438.617 400.79 400.789C438.618 362.961 482.708 333.244 531.833 312.466C582.765 290.924 636.788 280 692.4 280C748.012 280 802.036 290.924 852.968 312.467C902.092 333.244 946.181 362.96 984.011 400.789C1021.84 438.619 1051.56 482.709 1072.33 531.834C1093.88 582.764 1104.8 636.787 1104.8 692.401C1104.8 748.013 1093.88 802.036 1072.33 852.969C1051.56 902.091 1021.84 946.181 984.011 984.011C946.183 1021.84 902.093 1051.55 852.967 1072.33C802.036 1093.88 748.012 1104.8 692.4 1104.8Z" fill="#FFFFFA" fill-opacity="0.05"></path>
<path fill-rule="evenodd" clip-rule="evenodd" d="M692.4 1034.8C646.208 1034.8 601.359 1025.74 559.101 1007.86C518.32 990.615 481.71 965.937 450.287 934.514C418.864 903.091 394.185 866.481 376.936 825.699C359.062 783.442 350 738.593 350 692.401C350 646.207 359.062 601.36 376.936 559.102C394.185 518.321 418.864 481.709 450.287 450.287C481.71 418.863 518.32 394.186 559.101 376.936C601.359 359.063 646.207 350 692.4 350C738.593 350 783.441 359.063 825.699 376.937C866.48 394.186 903.09 418.863 934.513 450.287C965.936 481.709 990.615 518.321 1007.86 559.102C1025.74 601.36 1034.8 646.207 1034.8 692.401C1034.8 738.593 1025.74 783.442 1007.86 825.699C990.615 866.481 965.936 903.091 934.513 934.514C903.09 965.937 866.48 990.614 825.699 1007.86C783.441 1025.74 738.593 1034.8 692.4 1034.8Z" fill="#FFFFFA" fill-opacity="0.05"></path>
<g opacity="0.3">
<path fill-rule="evenodd" clip-rule="evenodd" d="M356.935 405.8C356.935 412.84 363.847 418.6 372.295 418.6H526.407C534.855 418.6 541.767 412.84 541.767 405.8C541.767 398.76 534.855 393 526.407 393H372.295C363.847 393 356.935 398.76 356.935 405.8ZM614.983 454.44C614.983 461.48 621.895 467.241 630.343 467.241H647.752C656.199 467.241 663.111 461.48 663.111 454.44C663.111 447.401 656.199 441.64 647.752 441.64H630.343C621.895 441.64 614.983 447.401 614.983 454.44ZM312.391 405.8C312.391 412.84 318.151 418.6 325.191 418.6C332.231 418.6 337.991 412.84 337.991 405.8C337.991 398.76 332.231 393 325.191 393C318.151 393 312.391 398.76 312.391 405.8ZM232.007 505.64C232.007 512.68 238.919 518.44 247.366 518.44H264.775C273.223 518.44 280.135 512.68 280.135 505.64C280.135 498.6 273.223 492.84 264.775 492.84H247.366C238.919 492.84 232.007 498.6 232.007 505.64Z" fill="white"></path>
<path fill-rule="evenodd" clip-rule="evenodd" d="M204.359 595.24H327.239C335.687 595.24 342.599 589.479 342.599 582.439C342.599 575.4 335.687 569.639 327.239 569.639H320.584C312.135 569.639 305.223 563.88 305.223 556.84C305.223 549.8 312.135 544.04 320.584 544.04H404.04C412.487 544.04 419.399 538.28 419.399 531.24C419.399 524.2 412.487 518.439 404.04 518.439H303.687C295.239 518.439 288.328 512.679 288.328 505.639C288.328 498.599 295.239 492.84 303.687 492.84H433.735C442.183 492.84 449.095 487.08 449.095 480.04C449.095 473 442.183 467.24 433.735 467.24H326.215C317.767 467.24 310.855 461.479 310.855 454.439C310.855 447.4 317.767 441.639 326.215 441.639H587.336C595.783 441.639 602.695 447.4 602.695 454.439C602.695 461.479 595.783 467.24 587.336 467.24H489.544C481.095 467.24 474.183 473 474.183 480.04C474.183 487.08 481.095 492.84 489.544 492.84H526.407C534.855 492.84 541.767 498.599 541.767 505.639C541.767 512.679 534.855 518.439 526.407 518.439H526.92C518.471 518.439 511.559 524.2 511.559 531.24C511.559 538.28 518.471 544.04 526.92 544.04H643.143C651.591 544.04 658.504 549.8 658.504 556.84C658.504 563.88 651.591 569.639 643.143 569.639H441.927C433.479 569.639 426.567 575.4 426.567 582.439C426.567 589.479 433.479 595.24 441.927 595.24H465.479C473.927 595.24 480.839 601 480.839 608.04C480.839 615.08 473.927 620.84 465.479 620.84H204.359C195.912 620.84 189 615.08 189 608.04C189 601 195.912 595.24 204.359 595.24Z" fill="white"></path>
</g>
<g opacity="0.3">
<path fill-rule="evenodd" clip-rule="evenodd" d="M818.349 474.032C818.349 468.399 823.878 463.792 830.637 463.792H953.926C960.685 463.792 966.214 468.399 966.214 474.032C966.214 479.664 960.685 484.271 953.926 484.271H830.637C823.878 484.271 818.349 479.664 818.349 474.032ZM1024.79 435.12C1024.79 429.487 1030.32 424.88 1037.08 424.88H1051C1057.76 424.88 1063.29 429.487 1063.29 435.12C1063.29 440.752 1057.76 445.359 1051 445.359H1037.08C1030.32 445.359 1024.79 440.752 1024.79 435.12ZM782.713 474.032C782.713 468.399 787.321 463.792 792.953 463.792C798.585 463.792 803.193 468.399 803.193 474.032C803.193 479.664 798.585 484.271 792.953 484.271C787.321 484.271 782.713 479.664 782.713 474.032ZM718.406 394.16C718.406 388.527 723.935 383.92 730.694 383.92H744.62C751.379 383.92 756.908 388.527 756.908 394.16C756.908 399.792 751.379 404.399 744.62 404.399H730.694C723.935 404.399 718.406 399.792 718.406 394.16Z" fill="white"></path>
<path fill-rule="evenodd" clip-rule="evenodd" d="M696.288 322.479H794.592C801.351 322.479 806.88 327.087 806.88 332.719C806.88 338.351 801.351 342.959 794.592 342.959H789.267C782.509 342.959 776.978 347.567 776.978 353.2C776.978 358.832 782.509 363.439 789.267 363.439H856.031C862.79 363.439 868.319 368.047 868.319 373.679C868.319 379.311 862.79 383.919 856.031 383.919H775.75C768.992 383.919 763.462 388.527 763.462 394.16C763.462 399.792 768.992 404.399 775.75 404.399H879.788C886.547 404.399 892.076 409.007 892.076 414.639C892.076 420.271 886.547 424.879 879.788 424.879H793.772C787.014 424.879 781.484 429.487 781.484 435.12C781.484 440.751 787.014 445.359 793.772 445.359H1002.67C1009.43 445.359 1014.96 440.751 1014.96 435.12C1014.96 429.487 1009.43 424.879 1002.67 424.879H924.435C917.677 424.879 912.146 420.271 912.146 414.639C912.146 409.007 917.677 404.399 924.435 404.399H953.926C960.685 404.399 966.214 399.792 966.214 394.16C966.214 388.527 960.685 383.919 953.926 383.919H954.336C947.577 383.919 942.048 379.311 942.048 373.679C942.048 368.047 947.577 363.439 954.336 363.439H1047.31C1054.07 363.439 1059.6 358.832 1059.6 353.2C1059.6 347.567 1054.07 342.959 1047.31 342.959H886.342C879.584 342.959 874.054 338.351 874.054 332.719C874.054 327.087 879.584 322.479 886.342 322.479H905.184C911.942 322.479 917.472 317.872 917.472 312.239C917.472 306.607 911.942 302 905.184 302H696.288C689.529 302 684 306.607 684 312.239C684 317.872 689.529 322.479 696.288 322.479Z" fill="white"></path>
</g>
<path fill-rule="evenodd" clip-rule="evenodd" d="M1084 279.5C1084 280.88 1082.88 282 1081.5 282C1080.12 282 1079 280.88 1079 279.5C1079 278.12 1080.12 277 1081.5 277C1082.88 277 1084 278.12 1084 279.5ZM385 259.5C385 260.88 383.88 262 382.5 262C381.12 262 380 260.88 380 259.5C380 258.12 381.12 257 382.5 257C383.88 257 385 258.12 385 259.5ZM240 788.5C240 789.88 238.88 791 237.5 791C236.12 791 235 789.88 235 788.5C235 787.12 236.12 786 237.5 786C238.88 786 240 787.12 240 788.5ZM282 607.5C282 608.881 280.881 610 279.5 610C278.119 610 277 608.881 277 607.5C277 606.119 278.119 605 279.5 605C280.881 605 282 606.119 282 607.5ZM946 308.5C946 309.881 944.881 311 943.5 311C942.119 311 941 309.881 941 308.5C941 307.119 942.119 306 943.5 306C944.881 306 946 307.119 946 308.5ZM722 228.5C722 229.881 720.881 231 719.5 231C718.119 231 717 229.881 717 228.5C717 227.119 718.119 226 719.5 226C720.881 226 722 227.119 722 228.5ZM467 429.5C467 430.881 465.881 432 464.5 432C463.119 432 462 430.881 462 429.5C462 428.119 463.119 427 464.5 427C465.881 427 467 428.119 467 429.5ZM516 279.5C516 280.881 514.881 282 513.5 282C512.119 282 511 280.881 511 279.5C511 278.119 512.119 277 513.5 277C514.881 277 516 278.119 516 279.5ZM916 218.5C916 219.881 914.881 221 913.5 221C912.119 221 911 219.881 911 218.5C911 217.119 912.119 216 913.5 216C914.881 216 916 217.119 916 218.5ZM638.063 375.056C637.756 373.71 638.598 372.37 639.944 372.063C641.29 371.756 642.629 372.598 642.937 373.944C643.244 375.289 642.402 376.629 641.056 376.937C639.71 377.244 638.371 376.402 638.063 375.056ZM1059.06 465.056C1058.76 463.71 1059.6 462.37 1060.94 462.063C1062.29 461.756 1063.63 462.598 1063.94 463.943C1064.24 465.29 1063.4 466.629 1062.06 466.937C1060.71 467.244 1059.37 466.402 1059.06 465.056ZM356.063 676.056C355.756 674.711 356.598 673.37 357.944 673.063C359.29 672.756 360.63 673.598 360.937 674.944C361.244 676.29 360.402 677.629 359.056 677.937C357.71 678.244 356.37 677.402 356.063 676.056ZM482.064 879.056C481.756 877.71 482.597 876.37 483.944 876.063C485.29 875.756 486.63 876.598 486.936 877.944C487.244 879.289 486.403 880.63 485.056 880.937C483.71 881.244 482.37 880.403 482.064 879.056ZM399.063 1009.06C398.756 1007.71 399.598 1006.37 400.944 1006.06C402.289 1005.76 403.629 1006.6 403.937 1007.94C404.244 1009.29 403.402 1010.63 402.056 1010.94C400.711 1011.24 399.371 1010.4 399.063 1009.06ZM719.063 997.056C718.756 995.71 719.598 994.37 720.944 994.063C722.289 993.756 723.629 994.598 723.937 995.943C724.244 997.29 723.402 998.629 722.056 998.937C720.711 999.244 719.371 998.402 719.063 997.056ZM890.063 927.056C889.756 925.71 890.598 924.371 891.944 924.063C893.289 923.756 894.629 924.598 894.937 925.943C895.244 927.29 894.402 928.629 893.056 928.937C891.711 929.244 890.371 928.402 890.063 927.056ZM1031.06 1096.06C1030.76 1094.71 1031.6 1093.37 1032.94 1093.06C1034.29 1092.76 1035.63 1093.6 1035.94 1094.94C1036.24 1096.29 1035.4 1097.63 1034.06 1097.94C1032.71 1098.24 1031.37 1097.4 1031.06 1096.06ZM1214.06 704.056C1213.76 702.711 1214.6 701.371 1215.94 701.063C1217.29 700.756 1218.63 701.598 1218.94 702.944C1219.24 704.289 1218.4 705.629 1217.06 705.937C1215.71 706.244 1214.37 705.402 1214.06 704.056ZM1337.06 520.056C1336.76 518.711 1337.6 517.371 1338.94 517.063C1340.29 516.756 1341.63 517.598 1341.94 518.944C1342.24 520.289 1341.4 521.629 1340.06 521.937C1338.71 522.244 1337.37 521.402 1337.06 520.056ZM848 1032.5C848 1033.88 846.881 1035 845.5 1035C844.119 1035 843 1033.88 843 1032.5C843 1031.12 844.119 1030 845.5 1030C846.881 1030 848 1031.12 848 1032.5ZM774 1165.5C774 1166.88 772.881 1168 771.5 1168C770.119 1168 769 1166.88 769 1165.5C769 1164.12 770.119 1163 771.5 1163C772.881 1163 774 1164.12 774 1165.5ZM1018 908.5C1018 909.881 1016.88 911 1015.5 911C1014.12 911 1013 909.881 1013 908.5C1013 907.119 1014.12 906 1015.5 906C1016.88 906 1018 907.119 1018 908.5ZM274 924.5C274 925.881 272.881 927 271.5 927C270.119 927 269 925.881 269 924.5C269 923.119 270.119 922 271.5 922C272.881 922 274 923.119 274 924.5ZM1246 620.5C1246 621.881 1244.88 623 1243.5 623C1242.12 623 1241 621.881 1241 620.5C1241 619.119 1242.12 618 1243.5 618C1244.88 618 1246 619.119 1246 620.5ZM538 1104.5C538 1105.88 536.88 1107 535.5 1107C534.12 1107 533 1105.88 533 1104.5C533 1103.12 534.12 1102 535.5 1102C536.88 1102 538 1103.12 538 1104.5ZM46 1074.5C46 1075.88 44.8805 1077 43.5 1077C42.1195 1077 41 1075.88 41 1074.5C41 1073.12 42.1195 1072 43.5 1072C44.8805 1072 46 1073.12 46 1074.5ZM106 434.5C106 435.88 104.88 437 103.5 437C102.12 437 101 435.88 101 434.5C101 433.12 102.12 432 103.5 432C104.88 432 106 433.12 106 434.5ZM1224 1051.5C1224 1052.88 1222.88 1054 1221.5 1054C1220.12 1054 1219 1052.88 1219 1051.5C1219 1050.12 1220.12 1049 1221.5 1049C1222.88 1049 1224 1050.12 1224 1051.5ZM1137 843.5C1137 844.88 1135.88 846 1134.5 846C1133.12 846 1132 844.88 1132 843.5C1132 842.12 1133.12 841 1134.5 841C1135.88 841 1137 842.12 1137 843.5ZM1181 456.5C1181 457.88 1179.88 459 1178.5 459C1177.12 459 1176 457.88 1176 456.5C1176 455.12 1177.12 454 1178.5 454C1179.88 454 1181 455.12 1181 456.5ZM659 314.5C659 315.88 657.88 317 656.5 317C655.12 317 654 315.88 654 314.5C654 313.12 655.12 312 656.5 312C657.88 312 659 313.12 659 314.5Z" fill="white"></path>
<path fill-rule="evenodd" clip-rule="evenodd" d="M964.8 692.4C964.8 842.842 842.843 964.799 692.401 964.799C541.958 964.799 420 842.842 420 692.4C420 541.958 541.958 420 692.401 420C842.843 420 964.8 541.958 964.8 692.4Z" fill="#FFFFFA"></path>
<path fill-rule="evenodd" clip-rule="evenodd" d="M619.374 611.592C619.374 644.453 592.735 671.092 559.874 671.092C527.013 671.092 500.374 644.453 500.374 611.592C500.374 578.731 527.013 552.092 559.874 552.092C592.735 552.092 619.374 578.731 619.374 611.592ZM716.954 516.592C716.954 537.623 699.905 554.672 678.874 554.672C657.843 554.672 640.794 537.623 640.794 516.592C640.794 495.561 657.843 478.512 678.874 478.512C699.905 478.512 716.954 495.561 716.954 516.592ZM713.245 621.592C713.245 635.052 702.334 645.963 688.874 645.963C675.414 645.963 664.503 635.052 664.503 621.592C664.503 608.132 675.414 597.221 688.874 597.221C702.334 597.221 713.245 608.132 713.245 621.592Z" fill="#E6E6E6" fill-opacity="0.3"></path>
<path fill-rule="evenodd" clip-rule="evenodd" d="M461.176 776.8C461.176 783.84 454.264 789.6 445.816 789.6H291.704C283.256 789.6 276.344 783.84 276.344 776.8C276.344 769.76 283.256 764 291.704 764H445.816C454.264 764 461.176 769.76 461.176 776.8ZM203.128 825.44C203.128 832.48 196.216 838.241 187.768 838.241H170.359C161.912 838.241 155 832.48 155 825.44C155 818.401 161.912 812.64 170.359 812.64H187.768C196.216 812.64 203.128 818.401 203.128 825.44ZM505.72 776.8C505.72 783.84 499.96 789.6 492.92 789.6C485.88 789.6 480.12 783.84 480.12 776.8C480.12 769.76 485.88 764 492.92 764C499.96 764 505.72 769.76 505.72 776.8ZM586.104 876.64C586.104 883.68 579.192 889.44 570.745 889.44H553.336C544.888 889.44 537.976 883.68 537.976 876.64C537.976 869.6 544.888 863.84 553.336 863.84H570.745C579.192 863.84 586.104 869.6 586.104 876.64Z" fill="#072142"></path>
<path fill-rule="evenodd" clip-rule="evenodd" d="M613.752 966.24H490.872C482.424 966.24 475.512 960.479 475.512 953.439C475.512 946.4 482.424 940.639 490.872 940.639H497.527C505.976 940.639 512.888 934.88 512.888 927.84C512.888 920.8 505.976 915.04 497.527 915.04H414.071C405.624 915.04 398.712 909.28 398.712 902.24C398.712 895.2 405.624 889.439 414.071 889.439H514.424C522.872 889.439 529.783 883.679 529.783 876.639C529.783 869.599 522.872 863.84 514.424 863.84H384.376C375.928 863.84 369.016 858.08 369.016 851.04C369.016 844 375.928 838.24 384.376 838.24H491.896C500.344 838.24 507.256 832.479 507.256 825.439C507.256 818.4 500.344 812.639 491.896 812.639H230.775C222.328 812.639 215.416 818.4 215.416 825.439C215.416 832.479 222.328 838.24 230.775 838.24H328.567C337.016 838.24 343.928 844 343.928 851.04C343.928 858.08 337.016 863.84 328.567 863.84H291.704C283.256 863.84 276.344 869.599 276.344 876.639C276.344 883.679 283.256 889.439 291.704 889.439H291.191C299.64 889.439 306.552 895.2 306.552 902.24C306.552 909.28 299.64 915.04 291.191 915.04H174.968C166.52 915.04 159.607 920.8 159.607 927.84C159.607 934.88 166.52 940.639 174.968 940.639H376.184C384.632 940.639 391.544 946.4 391.544 953.439C391.544 960.479 384.632 966.24 376.184 966.24H352.632C344.184 966.24 337.272 972 337.272 979.04C337.272 986.08 344.184 991.84 352.632 991.84H613.752C622.199 991.84 629.111 986.08 629.111 979.04C629.111 972 622.199 966.24 613.752 966.24Z" fill="#072142"></path>
<path fill-rule="evenodd" clip-rule="evenodd" d="M689.128 1004.4C689.128 997.361 682.216 991.6 673.768 991.6H656.359C647.912 991.6 641 997.361 641 1004.4C641 1011.44 647.912 1017.2 656.359 1017.2H673.768C682.216 1017.2 689.128 1011.44 689.128 1004.4ZM991.72 1053.04C991.72 1046 985.96 1040.24 978.92 1040.24C971.88 1040.24 966.12 1046 966.12 1053.04C966.12 1060.08 971.88 1065.84 978.92 1065.84C985.96 1065.84 991.72 1060.08 991.72 1053.04ZM1072.1 953.201C1072.1 946.161 1065.19 940.401 1056.74 940.401H1039.34C1030.89 940.401 1023.98 946.161 1023.98 953.201C1023.98 960.241 1030.89 966.001 1039.34 966.001H1056.74C1065.19 966.001 1072.1 960.241 1072.1 953.201Z" fill="#072142"></path>
<path fill-rule="evenodd" clip-rule="evenodd" d="M1099.75 863.6H976.872C968.424 863.6 961.512 869.361 961.512 876.401C961.512 883.44 968.424 889.201 976.872 889.201H983.527C991.976 889.201 998.888 894.96 998.888 902C998.888 909.04 991.976 914.8 983.527 914.8H900.071C891.624 914.8 884.712 920.56 884.712 927.6C884.712 934.64 891.624 940.401 900.071 940.401H1000.42C1008.87 940.401 1015.78 946.161 1015.78 953.201C1015.78 960.241 1008.87 966 1000.42 966H870.376C861.928 966 855.016 971.76 855.016 978.8C855.016 985.84 861.928 991.6 870.376 991.6H977.896C986.344 991.6 993.256 997.361 993.256 1004.4C993.256 1011.44 986.344 1017.2 977.896 1017.2H716.775C708.328 1017.2 701.416 1011.44 701.416 1004.4C701.416 997.361 708.328 991.6 716.775 991.6H814.567C823.016 991.6 829.928 985.84 829.928 978.8C829.928 971.76 823.016 966 814.567 966H777.704C769.256 966 762.344 960.241 762.344 953.201C762.344 946.161 769.256 940.401 777.704 940.401H777.191C785.64 940.401 792.552 934.64 792.552 927.6C792.552 920.56 785.64 914.8 777.191 914.8H660.968C652.52 914.8 645.607 909.04 645.607 902C645.607 894.96 652.52 889.201 660.968 889.201H862.184C870.632 889.201 877.544 883.44 877.544 876.401C877.544 869.361 870.632 863.6 862.184 863.6H838.632C830.184 863.6 823.272 857.84 823.272 850.8C823.272 843.76 830.184 838 838.632 838H1099.75C1108.2 838 1115.11 843.76 1115.11 850.8C1115.11 857.84 1108.2 863.6 1099.75 863.6ZM947.176 1053.04C947.176 1046 940.264 1040.24 931.816 1040.24H777.704C769.256 1040.24 762.344 1046 762.344 1053.04C762.344 1060.08 769.256 1065.84 777.704 1065.84H931.816C940.264 1065.84 947.176 1060.08 947.176 1053.04Z" fill="#072142"></path>
<path fill-rule="evenodd" clip-rule="evenodd" d="M806.559 597.2C799.52 597.2 793.759 602.96 793.759 610C793.759 617.04 799.52 622.8 806.559 622.8C813.599 622.8 819.36 617.04 819.36 610C819.36 602.96 813.599 597.2 806.559 597.2Z" fill="#072142"></path>
<path fill-rule="evenodd" clip-rule="evenodd" d="M1160.48 750.8H1038.94C1030.49 750.8 1023.58 745.04 1023.58 738C1023.58 730.96 1030.49 725.2 1038.94 725.2H1041.44C1049.89 725.2 1056.8 719.441 1056.8 712.401C1056.8 705.361 1049.89 699.601 1041.44 699.601H981.341C972.893 699.601 965.981 693.84 965.981 686.8C965.981 679.76 972.893 674 981.341 674H1092C1100.45 674 1107.36 668.24 1107.36 661.2C1107.36 654.16 1100.45 648.401 1092 648.401H967.517C959.069 648.401 952.157 642.641 952.157 635.601C952.157 628.561 959.069 622.8 967.517 622.8H1029.92C1038.37 622.8 1045.28 617.04 1045.28 610C1045.28 602.96 1038.37 597.2 1029.92 597.2H1030.62C1022.17 597.2 1015.26 591.441 1015.26 584.401C1015.26 577.361 1022.17 571.601 1030.62 571.601H1111.84C1120.29 571.601 1127.2 565.84 1127.2 558.8C1127.2 551.76 1120.29 546 1111.84 546H928.16C919.711 546 912.799 551.76 912.799 558.8C912.799 565.84 919.711 571.601 928.16 571.601H974.813C983.261 571.601 990.173 577.361 990.173 584.401C990.173 591.441 983.261 597.2 974.813 597.2H852.639C844.192 597.2 837.28 602.96 837.28 610C837.28 617.04 844.192 622.8 852.639 622.8H852.829C861.277 622.8 868.189 628.561 868.189 635.601C868.189 642.641 861.277 648.401 852.829 648.401H762.36C753.912 648.401 747 654.16 747 661.2C747 668.24 753.912 674 762.36 674H925.533C933.981 674 940.893 679.76 940.893 686.8C940.893 693.84 933.981 699.601 925.533 699.601H921.759C913.312 699.601 906.4 705.361 906.4 712.401C906.4 719.441 913.312 725.2 921.759 725.2H983.133C991.581 725.2 998.493 730.96 998.493 738C998.493 745.04 991.581 750.8 983.133 750.8H862.4C853.952 750.8 847.04 756.561 847.04 763.601C847.04 770.641 853.952 776.401 862.4 776.401H1160.48C1168.93 776.401 1175.84 770.641 1175.84 763.601C1175.84 756.561 1168.93 750.8 1160.48 750.8ZM1212.96 750.8H1200.8C1192.35 750.8 1185.44 756.561 1185.44 763.601C1185.44 770.641 1192.35 776.401 1200.8 776.401H1212.96C1221.41 776.401 1228.32 770.641 1228.32 763.601C1228.32 756.561 1221.41 750.8 1212.96 750.8Z" fill="#072142"></path>
<path fill-rule="evenodd" clip-rule="evenodd" d="M1069.6 712.401C1069.6 719.441 1076.51 725.201 1084.96 725.201H1138.08C1146.53 725.201 1153.44 719.441 1153.44 712.401C1153.44 705.361 1146.53 699.601 1138.08 699.601H1084.96C1076.51 699.601 1069.6 705.361 1069.6 712.401Z" fill="#072142"></path>
</svg></svg></g></g><defs><clipPath id="SvgjsClipPath1110"><rect width="1000" height="1000" x="0" y="0" rx="350" ry="350"></rect></clipPath></defs></svg></g><g id="dark-icon"><svg xmlns="http://www.w3.org/2000/svg" version="1.1" xmlns:xlink="http://www.w3.org/1999/xlink" width="1000" height="1000"><g clip-path="url(#SvgjsClipPath1111)"><rect width="1000" height="1000" fill="#072142"></rect><g transform="matrix(0.7220216606498195,0,0,0.7220216606498195,-5.684341886080802e-14,-5.684341886080802e-14)"><svg xmlns="http://www.w3.org/2000/svg" version="1.1" xmlns:xlink="http://www.w3.org/1999/xlink" width="1385" height="1385"><svg width="1385" height="1385" viewBox="0 0 1385 1385" fill="none" xmlns="http://www.w3.org/2000/svg">
<path fill-rule="evenodd" clip-rule="evenodd" d="M692.4 1384.8C599.107 1384.8 508.384 1366.43 422.752 1330.21C340.262 1295.33 266.258 1245.46 202.801 1182C139.349 1118.55 89.482 1044.55 54.585 962.042C18.366 876.415 0 785.694 0 692.401C0 599.11 18.365 508.388 54.586 422.756C89.48 340.255 139.347 266.251 202.801 202.798C266.252 139.347 340.256 89.481 422.757 54.584C508.394 18.365 599.115 0 692.4 0C785.688 0 876.409 18.365 962.044 54.586C1044.54 89.479 1118.55 139.344 1182 202.797C1245.46 266.254 1295.32 340.263 1330.22 422.768C1366.44 508.389 1384.8 599.107 1384.8 692.401C1384.8 785.692 1366.43 876.414 1330.21 962.049C1295.33 1044.54 1245.46 1118.54 1182.01 1182C1118.55 1245.45 1044.54 1295.32 962.044 1330.21C876.411 1366.43 785.689 1384.8 692.4 1384.8Z" fill="#FFFFFA" fill-opacity="0.05"></path>
<path fill-rule="evenodd" clip-rule="evenodd" d="M692.4 1314.8C608.528 1314.8 526.98 1298.29 450.022 1265.74C375.876 1234.38 309.35 1189.56 252.299 1132.51C195.253 1075.46 150.422 1008.93 119.055 934.774C86.504 857.821 70 776.274 70 692.401C70 608.529 86.504 526.982 119.055 450.025C150.421 375.868 195.251 309.342 252.297 252.296C309.342 195.25 375.869 150.422 450.027 119.055C526.987 86.504 608.533 70 692.4 70C776.269 70 857.816 86.505 934.775 119.056C1008.93 150.419 1075.45 195.247 1132.5 252.295C1189.55 309.347 1234.38 375.875 1265.75 450.034C1298.3 526.981 1314.8 608.526 1314.8 692.401C1314.8 776.274 1298.29 857.821 1265.74 934.779C1234.38 1008.92 1189.56 1075.45 1132.51 1132.5C1075.46 1189.55 1008.93 1234.38 934.775 1265.74C857.817 1298.3 776.27 1314.8 692.4 1314.8Z" fill="#FFFFFA" fill-opacity="0.05"></path>
<path fill-rule="evenodd" clip-rule="evenodd" d="M692.4 1244.8C617.948 1244.8 545.575 1230.15 477.292 1201.27C411.488 1173.44 352.442 1133.65 301.796 1083.01C251.155 1032.37 211.363 973.321 183.526 907.505C154.643 839.225 140 766.853 140 692.401C140 617.949 154.643 545.576 183.526 477.294C211.362 411.482 251.153 352.435 301.796 301.794C352.434 251.154 411.481 211.362 477.296 183.526C545.58 154.645 617.951 140 692.4 140C766.851 140 839.223 154.645 907.506 183.526C973.314 211.36 1032.36 251.151 1083.01 301.793C1133.65 352.439 1173.44 411.488 1201.28 477.301C1230.16 545.573 1244.8 617.945 1244.8 692.401C1244.8 766.854 1230.16 839.227 1201.27 907.509C1173.44 973.311 1133.65 1032.36 1083.01 1083C1032.37 1133.65 973.321 1173.44 907.506 1201.27C839.223 1230.16 766.851 1244.8 692.4 1244.8Z" fill="#FFFFFA" fill-opacity="0.05"></path>
<path fill-rule="evenodd" clip-rule="evenodd" d="M692.4 1174.8C627.366 1174.8 564.169 1162.02 504.561 1136.8C447.098 1112.5 395.531 1077.75 351.294 1033.51C307.057 989.276 272.303 937.707 247.996 880.237C222.784 820.63 210 757.433 210 692.401C210 627.368 222.784 564.17 247.996 504.563C272.303 447.095 307.057 395.527 351.292 351.291C395.526 307.057 447.094 272.303 504.564 247.996C564.172 222.783 627.369 210 692.4 210C757.432 210 820.629 222.783 880.237 247.996C937.704 272.302 989.271 307.055 1033.51 351.291C1077.75 395.53 1112.5 447.1 1136.8 504.568C1162.02 564.169 1174.8 627.366 1174.8 692.401C1174.8 757.434 1162.02 820.632 1136.8 880.238C1112.5 937.702 1077.75 989.27 1033.51 1033.51C989.276 1077.74 937.708 1112.49 880.237 1136.8C820.63 1162.02 757.433 1174.8 692.4 1174.8Z" fill="#FFFFFA" fill-opacity="0.05"></path>
<path fill-rule="evenodd" clip-rule="evenodd" d="M692.4 1104.8C636.787 1104.8 582.764 1093.88 531.832 1072.33C482.71 1051.56 438.62 1021.84 400.79 984.012C362.96 946.183 333.245 902.093 312.465 852.968C290.922 802.036 280 748.013 280 692.401C280 636.787 290.922 582.764 312.465 531.832C333.244 482.707 362.961 438.617 400.79 400.789C438.618 362.961 482.708 333.244 531.833 312.466C582.765 290.924 636.788 280 692.4 280C748.012 280 802.036 290.924 852.968 312.467C902.092 333.244 946.181 362.96 984.011 400.789C1021.84 438.619 1051.56 482.709 1072.33 531.834C1093.88 582.764 1104.8 636.787 1104.8 692.401C1104.8 748.013 1093.88 802.036 1072.33 852.969C1051.56 902.091 1021.84 946.181 984.011 984.011C946.183 1021.84 902.093 1051.55 852.967 1072.33C802.036 1093.88 748.012 1104.8 692.4 1104.8Z" fill="#FFFFFA" fill-opacity="0.05"></path>
<path fill-rule="evenodd" clip-rule="evenodd" d="M692.4 1034.8C646.208 1034.8 601.359 1025.74 559.101 1007.86C518.32 990.615 481.71 965.937 450.287 934.514C418.864 903.091 394.185 866.481 376.936 825.699C359.062 783.442 350 738.593 350 692.401C350 646.207 359.062 601.36 376.936 559.102C394.185 518.321 418.864 481.709 450.287 450.287C481.71 418.863 518.32 394.186 559.101 376.936C601.359 359.063 646.207 350 692.4 350C738.593 350 783.441 359.063 825.699 376.937C866.48 394.186 903.09 418.863 934.513 450.287C965.936 481.709 990.615 518.321 1007.86 559.102C1025.74 601.36 1034.8 646.207 1034.8 692.401C1034.8 738.593 1025.74 783.442 1007.86 825.699C990.615 866.481 965.936 903.091 934.513 934.514C903.09 965.937 866.48 990.614 825.699 1007.86C783.441 1025.74 738.593 1034.8 692.4 1034.8Z" fill="#FFFFFA" fill-opacity="0.05"></path>
<g opacity="0.3">
<path fill-rule="evenodd" clip-rule="evenodd" d="M356.935 405.8C356.935 412.84 363.847 418.6 372.295 418.6H526.407C534.855 418.6 541.767 412.84 541.767 405.8C541.767 398.76 534.855 393 526.407 393H372.295C363.847 393 356.935 398.76 356.935 405.8ZM614.983 454.44C614.983 461.48 621.895 467.241 630.343 467.241H647.752C656.199 467.241 663.111 461.48 663.111 454.44C663.111 447.401 656.199 441.64 647.752 441.64H630.343C621.895 441.64 614.983 447.401 614.983 454.44ZM312.391 405.8C312.391 412.84 318.151 418.6 325.191 418.6C332.231 418.6 337.991 412.84 337.991 405.8C337.991 398.76 332.231 393 325.191 393C318.151 393 312.391 398.76 312.391 405.8ZM232.007 505.64C232.007 512.68 238.919 518.44 247.366 518.44H264.775C273.223 518.44 280.135 512.68 280.135 505.64C280.135 498.6 273.223 492.84 264.775 492.84H247.366C238.919 492.84 232.007 498.6 232.007 505.64Z" fill="white"></path>
<path fill-rule="evenodd" clip-rule="evenodd" d="M204.359 595.24H327.239C335.687 595.24 342.599 589.479 342.599 582.439C342.599 575.4 335.687 569.639 327.239 569.639H320.584C312.135 569.639 305.223 563.88 305.223 556.84C305.223 549.8 312.135 544.04 320.584 544.04H404.04C412.487 544.04 419.399 538.28 419.399 531.24C419.399 524.2 412.487 518.439 404.04 518.439H303.687C295.239 518.439 288.328 512.679 288.328 505.639C288.328 498.599 295.239 492.84 303.687 492.84H433.735C442.183 492.84 449.095 487.08 449.095 480.04C449.095 473 442.183 467.24 433.735 467.24H326.215C317.767 467.24 310.855 461.479 310.855 454.439C310.855 447.4 317.767 441.639 326.215 441.639H587.336C595.783 441.639 602.695 447.4 602.695 454.439C602.695 461.479 595.783 467.24 587.336 467.24H489.544C481.095 467.24 474.183 473 474.183 480.04C474.183 487.08 481.095 492.84 489.544 492.84H526.407C534.855 492.84 541.767 498.599 541.767 505.639C541.767 512.679 534.855 518.439 526.407 518.439H526.92C518.471 518.439 511.559 524.2 511.559 531.24C511.559 538.28 518.471 544.04 526.92 544.04H643.143C651.591 544.04 658.504 549.8 658.504 556.84C658.504 563.88 651.591 569.639 643.143 569.639H441.927C433.479 569.639 426.567 575.4 426.567 582.439C426.567 589.479 433.479 595.24 441.927 595.24H465.479C473.927 595.24 480.839 601 480.839 608.04C480.839 615.08 473.927 620.84 465.479 620.84H204.359C195.912 620.84 189 615.08 189 608.04C189 601 195.912 595.24 204.359 595.24Z" fill="white"></path>
</g>
<g opacity="0.3">
<path fill-rule="evenodd" clip-rule="evenodd" d="M818.349 474.032C818.349 468.399 823.878 463.792 830.637 463.792H953.926C960.685 463.792 966.214 468.399 966.214 474.032C966.214 479.664 960.685 484.271 953.926 484.271H830.637C823.878 484.271 818.349 479.664 818.349 474.032ZM1024.79 435.12C1024.79 429.487 1030.32 424.88 1037.08 424.88H1051C1057.76 424.88 1063.29 429.487 1063.29 435.12C1063.29 440.752 1057.76 445.359 1051 445.359H1037.08C1030.32 445.359 1024.79 440.752 1024.79 435.12ZM782.713 474.032C782.713 468.399 787.321 463.792 792.953 463.792C798.585 463.792 803.193 468.399 803.193 474.032C803.193 479.664 798.585 484.271 792.953 484.271C787.321 484.271 782.713 479.664 782.713 474.032ZM718.406 394.16C718.406 388.527 723.935 383.92 730.694 383.92H744.62C751.379 383.92 756.908 388.527 756.908 394.16C756.908 399.792 751.379 404.399 744.62 404.399H730.694C723.935 404.399 718.406 399.792 718.406 394.16Z" fill="white"></path>
<path fill-rule="evenodd" clip-rule="evenodd" d="M696.288 322.479H794.592C801.351 322.479 806.88 327.087 806.88 332.719C806.88 338.351 801.351 342.959 794.592 342.959H789.267C782.509 342.959 776.978 347.567 776.978 353.2C776.978 358.832 782.509 363.439 789.267 363.439H856.031C862.79 363.439 868.319 368.047 868.319 373.679C868.319 379.311 862.79 383.919 856.031 383.919H775.75C768.992 383.919 763.462 388.527 763.462 394.16C763.462 399.792 768.992 404.399 775.75 404.399H879.788C886.547 404.399 892.076 409.007 892.076 414.639C892.076 420.271 886.547 424.879 879.788 424.879H793.772C787.014 424.879 781.484 429.487 781.484 435.12C781.484 440.751 787.014 445.359 793.772 445.359H1002.67C1009.43 445.359 1014.96 440.751 1014.96 435.12C1014.96 429.487 1009.43 424.879 1002.67 424.879H924.435C917.677 424.879 912.146 420.271 912.146 414.639C912.146 409.007 917.677 404.399 924.435 404.399H953.926C960.685 404.399 966.214 399.792 966.214 394.16C966.214 388.527 960.685 383.919 953.926 383.919H954.336C947.577 383.919 942.048 379.311 942.048 373.679C942.048 368.047 947.577 363.439 954.336 363.439H1047.31C1054.07 363.439 1059.6 358.832 1059.6 353.2C1059.6 347.567 1054.07 342.959 1047.31 342.959H886.342C879.584 342.959 874.054 338.351 874.054 332.719C874.054 327.087 879.584 322.479 886.342 322.479H905.184C911.942 322.479 917.472 317.872 917.472 312.239C917.472 306.607 911.942 302 905.184 302H696.288C689.529 302 684 306.607 684 312.239C684 317.872 689.529 322.479 696.288 322.479Z" fill="white"></path>
</g>
<path fill-rule="evenodd" clip-rule="evenodd" d="M1084 279.5C1084 280.88 1082.88 282 1081.5 282C1080.12 282 1079 280.88 1079 279.5C1079 278.12 1080.12 277 1081.5 277C1082.88 277 1084 278.12 1084 279.5ZM385 259.5C385 260.88 383.88 262 382.5 262C381.12 262 380 260.88 380 259.5C380 258.12 381.12 257 382.5 257C383.88 257 385 258.12 385 259.5ZM240 788.5C240 789.88 238.88 791 237.5 791C236.12 791 235 789.88 235 788.5C235 787.12 236.12 786 237.5 786C238.88 786 240 787.12 240 788.5ZM282 607.5C282 608.881 280.881 610 279.5 610C278.119 610 277 608.881 277 607.5C277 606.119 278.119 605 279.5 605C280.881 605 282 606.119 282 607.5ZM946 308.5C946 309.881 944.881 311 943.5 311C942.119 311 941 309.881 941 308.5C941 307.119 942.119 306 943.5 306C944.881 306 946 307.119 946 308.5ZM722 228.5C722 229.881 720.881 231 719.5 231C718.119 231 717 229.881 717 228.5C717 227.119 718.119 226 719.5 226C720.881 226 722 227.119 722 228.5ZM467 429.5C467 430.881 465.881 432 464.5 432C463.119 432 462 430.881 462 429.5C462 428.119 463.119 427 464.5 427C465.881 427 467 428.119 467 429.5ZM516 279.5C516 280.881 514.881 282 513.5 282C512.119 282 511 280.881 511 279.5C511 278.119 512.119 277 513.5 277C514.881 277 516 278.119 516 279.5ZM916 218.5C916 219.881 914.881 221 913.5 221C912.119 221 911 219.881 911 218.5C911 217.119 912.119 216 913.5 216C914.881 216 916 217.119 916 218.5ZM638.063 375.056C637.756 373.71 638.598 372.37 639.944 372.063C641.29 371.756 642.629 372.598 642.937 373.944C643.244 375.289 642.402 376.629 641.056 376.937C639.71 377.244 638.371 376.402 638.063 375.056ZM1059.06 465.056C1058.76 463.71 1059.6 462.37 1060.94 462.063C1062.29 461.756 1063.63 462.598 1063.94 463.943C1064.24 465.29 1063.4 466.629 1062.06 466.937C1060.71 467.244 1059.37 466.402 1059.06 465.056ZM356.063 676.056C355.756 674.711 356.598 673.37 357.944 673.063C359.29 672.756 360.63 673.598 360.937 674.944C361.244 676.29 360.402 677.629 359.056 677.937C357.71 678.244 356.37 677.402 356.063 676.056ZM482.064 879.056C481.756 877.71 482.597 876.37 483.944 876.063C485.29 875.756 486.63 876.598 486.936 877.944C487.244 879.289 486.403 880.63 485.056 880.937C483.71 881.244 482.37 880.403 482.064 879.056ZM399.063 1009.06C398.756 1007.71 399.598 1006.37 400.944 1006.06C402.289 1005.76 403.629 1006.6 403.937 1007.94C404.244 1009.29 403.402 1010.63 402.056 1010.94C400.711 1011.24 399.371 1010.4 399.063 1009.06ZM719.063 997.056C718.756 995.71 719.598 994.37 720.944 994.063C722.289 993.756 723.629 994.598 723.937 995.943C724.244 997.29 723.402 998.629 722.056 998.937C720.711 999.244 719.371 998.402 719.063 997.056ZM890.063 927.056C889.756 925.71 890.598 924.371 891.944 924.063C893.289 923.756 894.629 924.598 894.937 925.943C895.244 927.29 894.402 928.629 893.056 928.937C891.711 929.244 890.371 928.402 890.063 927.056ZM1031.06 1096.06C1030.76 1094.71 1031.6 1093.37 1032.94 1093.06C1034.29 1092.76 1035.63 1093.6 1035.94 1094.94C1036.24 1096.29 1035.4 1097.63 1034.06 1097.94C1032.71 1098.24 1031.37 1097.4 1031.06 1096.06ZM1214.06 704.056C1213.76 702.711 1214.6 701.371 1215.94 701.063C1217.29 700.756 1218.63 701.598 1218.94 702.944C1219.24 704.289 1218.4 705.629 1217.06 705.937C1215.71 706.244 1214.37 705.402 1214.06 704.056ZM1337.06 520.056C1336.76 518.711 1337.6 517.371 1338.94 517.063C1340.29 516.756 1341.63 517.598 1341.94 518.944C1342.24 520.289 1341.4 521.629 1340.06 521.937C1338.71 522.244 1337.37 521.402 1337.06 520.056ZM848 1032.5C848 1033.88 846.881 1035 845.5 1035C844.119 1035 843 1033.88 843 1032.5C843 1031.12 844.119 1030 845.5 1030C846.881 1030 848 1031.12 848 1032.5ZM774 1165.5C774 1166.88 772.881 1168 771.5 1168C770.119 1168 769 1166.88 769 1165.5C769 1164.12 770.119 1163 771.5 1163C772.881 1163 774 1164.12 774 1165.5ZM1018 908.5C1018 909.881 1016.88 911 1015.5 911C1014.12 911 1013 909.881 1013 908.5C1013 907.119 1014.12 906 1015.5 906C1016.88 906 1018 907.119 1018 908.5ZM274 924.5C274 925.881 272.881 927 271.5 927C270.119 927 269 925.881 269 924.5C269 923.119 270.119 922 271.5 922C272.881 922 274 923.119 274 924.5ZM1246 620.5C1246 621.881 1244.88 623 1243.5 623C1242.12 623 1241 621.881 1241 620.5C1241 619.119 1242.12 618 1243.5 618C1244.88 618 1246 619.119 1246 620.5ZM538 1104.5C538 1105.88 536.88 1107 535.5 1107C534.12 1107 533 1105.88 533 1104.5C533 1103.12 534.12 1102 535.5 1102C536.88 1102 538 1103.12 538 1104.5ZM46 1074.5C46 1075.88 44.8805 1077 43.5 1077C42.1195 1077 41 1075.88 41 1074.5C41 1073.12 42.1195 1072 43.5 1072C44.8805 1072 46 1073.12 46 1074.5ZM106 434.5C106 435.88 104.88 437 103.5 437C102.12 437 101 435.88 101 434.5C101 433.12 102.12 432 103.5 432C104.88 432 106 433.12 106 434.5ZM1224 1051.5C1224 1052.88 1222.88 1054 1221.5 1054C1220.12 1054 1219 1052.88 1219 1051.5C1219 1050.12 1220.12 1049 1221.5 1049C1222.88 1049 1224 1050.12 1224 1051.5ZM1137 843.5C1137 844.88 1135.88 846 1134.5 846C1133.12 846 1132 844.88 1132 843.5C1132 842.12 1133.12 841 1134.5 841C1135.88 841 1137 842.12 1137 843.5ZM1181 456.5C1181 457.88 1179.88 459 1178.5 459C1177.12 459 1176 457.88 1176 456.5C1176 455.12 1177.12 454 1178.5 454C1179.88 454 1181 455.12 1181 456.5ZM659 314.5C659 315.88 657.88 317 656.5 317C655.12 317 654 315.88 654 314.5C654 313.12 655.12 312 656.5 312C657.88 312 659 313.12 659 314.5Z" fill="white"></path>
<path fill-rule="evenodd" clip-rule="evenodd" d="M964.8 692.4C964.8 842.842 842.843 964.799 692.401 964.799C541.958 964.799 420 842.842 420 692.4C420 541.958 541.958 420 692.401 420C842.843 420 964.8 541.958 964.8 692.4Z" fill="#FFFFFA"></path>
<path fill-rule="evenodd" clip-rule="evenodd" d="M619.374 611.592C619.374 644.453 592.735 671.092 559.874 671.092C527.013 671.092 500.374 644.453 500.374 611.592C500.374 578.731 527.013 552.092 559.874 552.092C592.735 552.092 619.374 578.731 619.374 611.592ZM716.954 516.592C716.954 537.623 699.905 554.672 678.874 554.672C657.843 554.672 640.794 537.623 640.794 516.592C640.794 495.561 657.843 478.512 678.874 478.512C699.905 478.512 716.954 495.561 716.954 516.592ZM713.245 621.592C713.245 635.052 702.334 645.963 688.874 645.963C675.414 645.963 664.503 635.052 664.503 621.592C664.503 608.132 675.414 597.221 688.874 597.221C702.334 597.221 713.245 608.132 713.245 621.592Z" fill="#E6E6E6" fill-opacity="0.3"></path>
<path fill-rule="evenodd" clip-rule="evenodd" d="M461.176 776.8C461.176 783.84 454.264 789.6 445.816 789.6H291.704C283.256 789.6 276.344 783.84 276.344 776.8C276.344 769.76 283.256 764 291.704 764H445.816C454.264 764 461.176 769.76 461.176 776.8ZM203.128 825.44C203.128 832.48 196.216 838.241 187.768 838.241H170.359C161.912 838.241 155 832.48 155 825.44C155 818.401 161.912 812.64 170.359 812.64H187.768C196.216 812.64 203.128 818.401 203.128 825.44ZM505.72 776.8C505.72 783.84 499.96 789.6 492.92 789.6C485.88 789.6 480.12 783.84 480.12 776.8C480.12 769.76 485.88 764 492.92 764C499.96 764 505.72 769.76 505.72 776.8ZM586.104 876.64C586.104 883.68 579.192 889.44 570.745 889.44H553.336C544.888 889.44 537.976 883.68 537.976 876.64C537.976 869.6 544.888 863.84 553.336 863.84H570.745C579.192 863.84 586.104 869.6 586.104 876.64Z" fill="#072142"></path>
<path fill-rule="evenodd" clip-rule="evenodd" d="M613.752 966.24H490.872C482.424 966.24 475.512 960.479 475.512 953.439C475.512 946.4 482.424 940.639 490.872 940.639H497.527C505.976 940.639 512.888 934.88 512.888 927.84C512.888 920.8 505.976 915.04 497.527 915.04H414.071C405.624 915.04 398.712 909.28 398.712 902.24C398.712 895.2 405.624 889.439 414.071 889.439H514.424C522.872 889.439 529.783 883.679 529.783 876.639C529.783 869.599 522.872 863.84 514.424 863.84H384.376C375.928 863.84 369.016 858.08 369.016 851.04C369.016 844 375.928 838.24 384.376 838.24H491.896C500.344 838.24 507.256 832.479 507.256 825.439C507.256 818.4 500.344 812.639 491.896 812.639H230.775C222.328 812.639 215.416 818.4 215.416 825.439C215.416 832.479 222.328 838.24 230.775 838.24H328.567C337.016 838.24 343.928 844 343.928 851.04C343.928 858.08 337.016 863.84 328.567 863.84H291.704C283.256 863.84 276.344 869.599 276.344 876.639C276.344 883.679 283.256 889.439 291.704 889.439H291.191C299.64 889.439 306.552 895.2 306.552 902.24C306.552 909.28 299.64 915.04 291.191 915.04H174.968C166.52 915.04 159.607 920.8 159.607 927.84C159.607 934.88 166.52 940.639 174.968 940.639H376.184C384.632 940.639 391.544 946.4 391.544 953.439C391.544 960.479 384.632 966.24 376.184 966.24H352.632C344.184 966.24 337.272 972 337.272 979.04C337.272 986.08 344.184 991.84 352.632 991.84H613.752C622.199 991.84 629.111 986.08 629.111 979.04C629.111 972 622.199 966.24 613.752 966.24Z" fill="#072142"></path>
<path fill-rule="evenodd" clip-rule="evenodd" d="M689.128 1004.4C689.128 997.361 682.216 991.6 673.768 991.6H656.359C647.912 991.6 641 997.361 641 1004.4C641 1011.44 647.912 1017.2 656.359 1017.2H673.768C682.216 1017.2 689.128 1011.44 689.128 1004.4ZM991.72 1053.04C991.72 1046 985.96 1040.24 978.92 1040.24C971.88 1040.24 966.12 1046 966.12 1053.04C966.12 1060.08 971.88 1065.84 978.92 1065.84C985.96 1065.84 991.72 1060.08 991.72 1053.04ZM1072.1 953.201C1072.1 946.161 1065.19 940.401 1056.74 940.401H1039.34C1030.89 940.401 1023.98 946.161 1023.98 953.201C1023.98 960.241 1030.89 966.001 1039.34 966.001H1056.74C1065.19 966.001 1072.1 960.241 1072.1 953.201Z" fill="#072142"></path>
<path fill-rule="evenodd" clip-rule="evenodd" d="M1099.75 863.6H976.872C968.424 863.6 961.512 869.361 961.512 876.401C961.512 883.44 968.424 889.201 976.872 889.201H983.527C991.976 889.201 998.888 894.96 998.888 902C998.888 909.04 991.976 914.8 983.527 914.8H900.071C891.624 914.8 884.712 920.56 884.712 927.6C884.712 934.64 891.624 940.401 900.071 940.401H1000.42C1008.87 940.401 1015.78 946.161 1015.78 953.201C1015.78 960.241 1008.87 966 1000.42 966H870.376C861.928 966 855.016 971.76 855.016 978.8C855.016 985.84 861.928 991.6 870.376 991.6H977.896C986.344 991.6 993.256 997.361 993.256 1004.4C993.256 1011.44 986.344 1017.2 977.896 1017.2H716.775C708.328 1017.2 701.416 1011.44 701.416 1004.4C701.416 997.361 708.328 991.6 716.775 991.6H814.567C823.016 991.6 829.928 985.84 829.928 978.8C829.928 971.76 823.016 966 814.567 966H777.704C769.256 966 762.344 960.241 762.344 953.201C762.344 946.161 769.256 940.401 777.704 940.401H777.191C785.64 940.401 792.552 934.64 792.552 927.6C792.552 920.56 785.64 914.8 777.191 914.8H660.968C652.52 914.8 645.607 909.04 645.607 902C645.607 894.96 652.52 889.201 660.968 889.201H862.184C870.632 889.201 877.544 883.44 877.544 876.401C877.544 869.361 870.632 863.6 862.184 863.6H838.632C830.184 863.6 823.272 857.84 823.272 850.8C823.272 843.76 830.184 838 838.632 838H1099.75C1108.2 838 1115.11 843.76 1115.11 850.8C1115.11 857.84 1108.2 863.6 1099.75 863.6ZM947.176 1053.04C947.176 1046 940.264 1040.24 931.816 1040.24H777.704C769.256 1040.24 762.344 1046 762.344 1053.04C762.344 1060.08 769.256 1065.84 777.704 1065.84H931.816C940.264 1065.84 947.176 1060.08 947.176 1053.04Z" fill="#072142"></path>
<path fill-rule="evenodd" clip-rule="evenodd" d="M806.559 597.2C799.52 597.2 793.759 602.96 793.759 610C793.759 617.04 799.52 622.8 806.559 622.8C813.599 622.8 819.36 617.04 819.36 610C819.36 602.96 813.599 597.2 806.559 597.2Z" fill="#072142"></path>
<path fill-rule="evenodd" clip-rule="evenodd" d="M1160.48 750.8H1038.94C1030.49 750.8 1023.58 745.04 1023.58 738C1023.58 730.96 1030.49 725.2 1038.94 725.2H1041.44C1049.89 725.2 1056.8 719.441 1056.8 712.401C1056.8 705.361 1049.89 699.601 1041.44 699.601H981.341C972.893 699.601 965.981 693.84 965.981 686.8C965.981 679.76 972.893 674 981.341 674H1092C1100.45 674 1107.36 668.24 1107.36 661.2C1107.36 654.16 1100.45 648.401 1092 648.401H967.517C959.069 648.401 952.157 642.641 952.157 635.601C952.157 628.561 959.069 622.8 967.517 622.8H1029.92C1038.37 622.8 1045.28 617.04 1045.28 610C1045.28 602.96 1038.37 597.2 1029.92 597.2H1030.62C1022.17 597.2 1015.26 591.441 1015.26 584.401C1015.26 577.361 1022.17 571.601 1030.62 571.601H1111.84C1120.29 571.601 1127.2 565.84 1127.2 558.8C1127.2 551.76 1120.29 546 1111.84 546H928.16C919.711 546 912.799 551.76 912.799 558.8C912.799 565.84 919.711 571.601 928.16 571.601H974.813C983.261 571.601 990.173 577.361 990.173 584.401C990.173 591.441 983.261 597.2 974.813 597.2H852.639C844.192 597.2 837.28 602.96 837.28 610C837.28 617.04 844.192 622.8 852.639 622.8H852.829C861.277 622.8 868.189 628.561 868.189 635.601C868.189 642.641 861.277 648.401 852.829 648.401H762.36C753.912 648.401 747 654.16 747 661.2C747 668.24 753.912 674 762.36 674H925.533C933.981 674 940.893 679.76 940.893 686.8C940.893 693.84 933.981 699.601 925.533 699.601H921.759C913.312 699.601 906.4 705.361 906.4 712.401C906.4 719.441 913.312 725.2 921.759 725.2H983.133C991.581 725.2 998.493 730.96 998.493 738C998.493 745.04 991.581 750.8 983.133 750.8H862.4C853.952 750.8 847.04 756.561 847.04 763.601C847.04 770.641 853.952 776.401 862.4 776.401H1160.48C1168.93 776.401 1175.84 770.641 1175.84 763.601C1175.84 756.561 1168.93 750.8 1160.48 750.8ZM1212.96 750.8H1200.8C1192.35 750.8 1185.44 756.561 1185.44 763.601C1185.44 770.641 1192.35 776.401 1200.8 776.401H1212.96C1221.41 776.401 1228.32 770.641 1228.32 763.601C1228.32 756.561 1221.41 750.8 1212.96 750.8Z" fill="#072142"></path>
<path fill-rule="evenodd" clip-rule="evenodd" d="M1069.6 712.401C1069.6 719.441 1076.51 725.201 1084.96 725.201H1138.08C1146.53 725.201 1153.44 719.441 1153.44 712.401C1153.44 705.361 1146.53 699.601 1138.08 699.601H1084.96C1076.51 699.601 1069.6 705.361 1069.6 712.401Z" fill="#072142"></path>
</svg></svg></g></g><defs><clipPath id="SvgjsClipPath1111"><rect width="1000" height="1000" x="0" y="0" rx="350" ry="350"></rect></clipPath></defs></svg></g></svg>