<svg xmlns="http://www.w3.org/2000/svg" version="1.1" xmlns:xlink="http://www.w3.org/1999/xlink" width="800" height="800"><svg width="800" height="800" viewBox="0 0 800 800" fill="none" xmlns="http://www.w3.org/2000/svg">
<g clip-path="url(#clip0_32_1347)">
<rect width="800" height="800" rx="162.5" fill="white"></rect>
<g clip-path="url(#clip1_32_1347)">
<path d="M-400 0H1200V800H-400V0Z" fill="#0B0C2A"></path>
<path d="M86 706.001C-23 684.001 -137 674.001 -249 686.001C-300 692.001 -351 703.001 -400 720.001V800.001H444C328 767.001 213 732.001 96 708.001L86 706.001Z" fill="#101136" fill-opacity="0.1"></path>
<path d="M1200 0H-400V720C-351 703 -300 692 -249 686C-137 674 -23 684 86 706L96 708C213 732 328 767 444 800H1200V0Z" fill="#151642" fill-opacity="0.1"></path>
<path d="M78 581L88 584C284 636 477 717 681 760C856 797 1031 789 1200 750V0H-400V575C-348 557 -293 547 -239 544C-132 537 -24 554 78 581Z" fill="#1C1C4C" fill-opacity="0.1"></path>
<path d="M-400 0V429C-344 411 -286 402 -229 402C-126 401 -25 424 71 456L80 459C263 521 445 605 642 651C829 695 1018 686 1200 639V0H-400Z" fill="#232257" fill-opacity="0.1"></path>
<path d="M-218 259C-120 265 -26 295 63 331L71 335C242 406 414 493 603 543C802 594 1006 583 1200 528V0H-400V283C-341 264 -279 256 -218 259Z" fill="#2B2A60" fill-opacity="0.1"></path>
<path d="M1200 0H-400V136C-338 115 -272 109 -208 117C-114 129 -27 165 56 207L63 211C222 292 383 382 564 434C774 495 994 483 1200 417V0Z" fill="#424194" fill-opacity="0.1"></path>
<path d="M55 86C201 177 352 269 524 325C745.058 394.395 982.949 388.061 1200 307V0H-112C-56 21 -3 51 48 82L55 86Z" fill="#6564BB" fill-opacity="0.1"></path>
<path d="M1200 0H98C216 86 342 165 485 216C717.42 299.161 972.593 292.024 1200 196V0Z" fill="#9997D2" fill-opacity="0.1"></path>
<path d="M998 155C1068.12 139.193 1135.98 114.669 1200 82V0H243C306 42 373 78 445 107C620 178 814 196 998 155Z" fill="#CCCBE8" fill-opacity="0.1"></path>
<path d="M915 72C991 60 1064 35 1132 0H409C566.949 73.1263 742.922 98.1659 915 72Z" fill="white" fill-opacity="0.1"></path>
<path d="M678.728 180.625C679.365 180.625 679.881 180.109 679.881 179.472C679.881 178.835 679.365 178.318 678.728 178.318C678.091 178.318 677.574 178.835 677.574 179.472C677.574 180.109 678.091 180.625 678.728 180.625Z" fill="white"></path>
<path d="M368.804 62.5688C369.468 62.5688 370.006 62.0305 370.006 61.3665C370.006 60.7024 369.468 60.1641 368.804 60.1641C368.14 60.1641 367.602 60.7024 367.602 61.3665C367.602 62.0305 368.14 62.5688 368.804 62.5688Z" fill="white"></path>
<path d="M364.616 254.902C365.1 254.902 365.493 254.509 365.493 254.024C365.493 253.539 365.1 253.146 364.616 253.146C364.131 253.146 363.738 253.539 363.738 254.024C363.738 254.509 364.131 254.902 364.616 254.902Z" fill="white"></path>
<path d="M135.947 267.628C136.522 267.628 136.988 267.162 136.988 266.588C136.988 266.013 136.522 265.547 135.947 265.547C135.372 265.547 134.906 266.013 134.906 266.588C134.906 267.162 135.372 267.628 135.947 267.628Z" fill="white"></path>
<path d="M437.491 123.565C438.071 123.565 438.541 123.094 438.541 122.515C438.541 121.935 438.071 121.465 437.491 121.465C436.911 121.465 436.441 121.935 436.441 122.515C436.441 123.094 436.911 123.565 437.491 123.565Z" fill="white"></path>
<path d="M158.565 777.137C159.269 777.137 159.84 776.566 159.84 775.861C159.84 775.157 159.269 774.586 158.565 774.586C157.86 774.586 157.289 775.157 157.289 775.861C157.289 776.566 157.86 777.137 158.565 777.137Z" fill="white"></path>
<path d="M258.237 758.312C258.722 758.312 259.115 757.919 259.115 757.435C259.115 756.95 258.722 756.557 258.237 756.557C257.752 756.557 257.359 756.95 257.359 757.435C257.359 757.919 257.752 758.312 258.237 758.312Z" fill="white"></path>
<path d="M286.72 78.4019C287.338 78.4019 287.839 77.901 287.839 77.283C287.839 76.665 287.338 76.1641 286.72 76.1641C286.103 76.1641 285.602 76.665 285.602 77.283C285.602 77.901 286.103 78.4019 286.72 78.4019Z" fill="white"></path>
<path d="M385.557 197.841C385.985 197.841 386.333 197.493 386.333 197.065C386.333 196.636 385.985 196.289 385.557 196.289C385.129 196.289 384.781 196.636 384.781 197.065C384.781 197.493 385.129 197.841 385.557 197.841Z" fill="white"></path>
<path d="M481.884 436.594C482.329 436.594 482.69 436.234 482.69 435.788C482.69 435.343 482.329 434.982 481.884 434.982C481.439 434.982 481.078 435.343 481.078 435.788C481.078 436.234 481.439 436.594 481.884 436.594Z" fill="white"></path>
<path d="M202.959 198.296C203.64 198.296 204.192 197.744 204.192 197.063C204.192 196.382 203.64 195.83 202.959 195.83C202.278 195.83 201.727 196.382 201.727 197.063C201.727 197.744 202.278 198.296 202.959 198.296Z" fill="white"></path>
<path d="M487.746 507.485C488.484 507.485 489.082 506.887 489.082 506.149C489.082 505.411 488.484 504.812 487.746 504.812C487.008 504.812 486.41 505.411 486.41 506.149C486.41 506.887 487.008 507.485 487.746 507.485Z" fill="white"></path>
<path d="M707.204 688.267C707.862 688.267 708.396 687.734 708.396 687.075C708.396 686.417 707.862 685.883 707.204 685.883C706.545 685.883 706.012 686.417 706.012 687.075C706.012 687.734 706.545 688.267 707.204 688.267Z" fill="white"></path>
<path d="M795.991 405.133C796.64 405.133 797.166 404.607 797.166 403.958C797.166 403.309 796.64 402.783 795.991 402.783C795.342 402.783 794.816 403.309 794.816 403.958C794.816 404.607 795.342 405.133 795.991 405.133Z" fill="white"></path>
<path d="M561.46 674.072C562.143 674.072 562.697 673.518 562.697 672.835C562.697 672.152 562.143 671.598 561.46 671.598C560.777 671.598 560.223 672.152 560.223 672.835C560.223 673.518 560.777 674.072 561.46 674.072Z" fill="white"></path>
<path d="M253.215 608.357C253.69 608.357 254.074 607.973 254.074 607.498C254.074 607.023 253.69 606.639 253.215 606.639C252.74 606.639 252.355 607.023 252.355 607.498C252.355 607.973 252.74 608.357 253.215 608.357Z" fill="white"></path>
<path d="M92.3904 649.835C93.1044 649.835 93.6831 649.257 93.6831 648.543C93.6831 647.829 93.1044 647.25 92.3904 647.25C91.6764 647.25 91.0977 647.829 91.0977 648.543C91.0977 649.257 91.6764 649.835 92.3904 649.835Z" fill="white"></path>
<path d="M289.231 581.805C289.844 581.805 290.341 581.309 290.341 580.696C290.341 580.083 289.844 579.586 289.231 579.586C288.618 579.586 288.121 580.083 288.121 580.696C288.121 581.309 288.618 581.805 289.231 581.805Z" fill="white"></path>
<path d="M497.8 711.694C498.445 711.694 498.968 711.171 498.968 710.527C498.968 709.882 498.445 709.359 497.8 709.359C497.155 709.359 496.633 709.882 496.633 710.527C496.633 711.171 497.155 711.694 497.8 711.694Z" fill="white"></path>
<path d="M241.488 192.834C241.928 192.834 242.285 192.477 242.285 192.037C242.285 191.597 241.928 191.24 241.488 191.24C241.048 191.24 240.691 191.597 240.691 192.037C240.691 192.477 241.048 192.834 241.488 192.834Z" fill="white"></path>
<path d="M391.422 497.273C392.073 497.273 392.601 496.745 392.601 496.094C392.601 495.442 392.073 494.914 391.422 494.914C390.77 494.914 390.242 495.442 390.242 496.094C390.242 496.745 390.77 497.273 391.422 497.273Z" fill="white"></path>
<path d="M290.068 49.8322C290.637 49.8322 291.098 49.3713 291.098 48.8028C291.098 48.2343 290.637 47.7734 290.068 47.7734C289.5 47.7734 289.039 48.2343 289.039 48.8028C289.039 49.3713 289.5 49.8322 290.068 49.8322Z" fill="white"></path>
<path d="M669.514 441.886C670.107 441.886 670.587 441.406 670.587 440.813C670.587 440.221 670.107 439.74 669.514 439.74C668.922 439.74 668.441 440.221 668.441 440.813C668.441 441.406 668.922 441.886 669.514 441.886Z" fill="white"></path>
<path d="M690.453 134.281C690.936 134.281 691.328 133.889 691.328 133.406C691.328 132.923 690.936 132.531 690.453 132.531C689.97 132.531 689.578 132.923 689.578 133.406C689.578 133.889 689.97 134.281 690.453 134.281Z" fill="white"></path>
<path d="M5.27802 52.6029C5.98816 52.6029 6.56385 52.0272 6.56385 51.3171C6.56385 50.6069 5.98816 50.0312 5.27802 50.0312C4.56788 50.0312 3.99219 50.6069 3.99219 51.3171C3.99219 52.0272 4.56788 52.6029 5.27802 52.6029Z" fill="white"></path>
<path d="M649.41 719.772C649.889 719.772 650.278 719.383 650.278 718.904C650.278 718.425 649.889 718.037 649.41 718.037C648.931 718.037 648.543 718.425 648.543 718.904C648.543 719.383 648.931 719.772 649.41 719.772Z" fill="white"></path>
<path d="M551.408 562.346C551.914 562.346 552.324 561.936 552.324 561.43C552.324 560.924 551.914 560.514 551.408 560.514C550.902 560.514 550.492 560.924 550.492 561.43C550.492 561.936 550.902 562.346 551.408 562.346Z" fill="white"></path>
<path d="M66.4246 158.183C67.1575 158.183 67.7516 157.589 67.7516 156.856C67.7516 156.123 67.1575 155.529 66.4246 155.529C65.6918 155.529 65.0977 156.123 65.0977 156.856C65.0977 157.589 65.6918 158.183 66.4246 158.183Z" fill="white"></path>
<path d="M206.308 256.863C206.952 256.863 207.474 256.341 207.474 255.696C207.474 255.052 206.952 254.529 206.308 254.529C205.663 254.529 205.141 255.052 205.141 255.696C205.141 256.341 205.663 256.863 206.308 256.863Z" fill="white"></path>
<path d="M88.2013 238.438C88.8454 238.438 89.3675 237.916 89.3675 237.272C89.3675 236.628 88.8454 236.105 88.2013 236.105C87.5572 236.105 87.0352 236.628 87.0352 237.272C87.0352 237.916 87.5572 238.438 88.2013 238.438Z" fill="white"></path>
<path d="M584.074 745.273C584.76 745.273 585.316 744.717 585.316 744.031C585.316 743.345 584.76 742.789 584.074 742.789C583.388 742.789 582.832 743.345 582.832 744.031C582.832 744.717 583.388 745.273 584.074 745.273Z" fill="white"></path>
<path d="M241.486 107.609C242.044 107.609 242.496 107.157 242.496 106.599C242.496 106.042 242.044 105.59 241.486 105.59C240.929 105.59 240.477 106.042 240.477 106.599C240.477 107.157 240.929 107.609 241.486 107.609Z" fill="white"></path>
<path d="M354.566 317.309C355.286 317.309 355.869 316.725 355.869 316.005C355.869 315.285 355.286 314.701 354.566 314.701C353.845 314.701 353.262 315.285 353.262 316.005C353.262 316.725 353.845 317.309 354.566 317.309Z" fill="white"></path>
<path d="M185.369 247.419C185.885 247.419 186.303 247 186.303 246.484C186.303 245.967 185.885 245.549 185.369 245.549C184.852 245.549 184.434 245.967 184.434 246.484C184.434 247 184.852 247.419 185.369 247.419Z" fill="white"></path>
<path d="M648.572 454.161C649.004 454.161 649.354 453.811 649.354 453.378C649.354 452.946 649.004 452.596 648.572 452.596C648.14 452.596 647.789 452.946 647.789 453.378C647.789 453.811 648.14 454.161 648.572 454.161Z" fill="white"></path>
<path d="M258.238 236.328C258.644 236.328 258.973 235.999 258.973 235.594C258.973 235.188 258.644 234.859 258.238 234.859C257.833 234.859 257.504 235.188 257.504 235.594C257.504 235.999 257.833 236.328 258.238 236.328Z" fill="white"></path>
<path d="M659.46 597.108C660.198 597.108 660.796 596.511 660.796 595.773C660.796 595.035 660.198 594.438 659.46 594.438C658.723 594.438 658.125 595.035 658.125 595.773C658.125 596.511 658.723 597.108 659.46 597.108Z" fill="white"></path>
<path d="M795.995 191.588C796.672 191.588 797.221 191.039 797.221 190.362C797.221 189.685 796.672 189.137 795.995 189.137C795.318 189.137 794.77 189.685 794.77 190.362C794.77 191.039 795.318 191.588 795.995 191.588Z" fill="white"></path>
<path d="M166.938 543.051C167.428 543.051 167.825 542.654 167.825 542.164C167.825 541.674 167.428 541.277 166.938 541.277C166.448 541.277 166.051 541.674 166.051 542.164C166.051 542.654 166.448 543.051 166.938 543.051Z" fill="white"></path>
<path d="M397.284 37.9987C397.792 37.9987 398.204 37.5867 398.204 37.0784C398.204 36.5702 397.792 36.1582 397.284 36.1582C396.775 36.1582 396.363 36.5702 396.363 37.0784C396.363 37.5867 396.775 37.9987 397.284 37.9987Z" fill="white"></path>
<path d="M241.486 603.699C242.163 603.699 242.711 603.151 242.711 602.475C242.711 601.798 242.163 601.25 241.486 601.25C240.81 601.25 240.262 601.798 240.262 602.475C240.262 603.151 240.81 603.699 241.486 603.699Z" fill="white"></path>
<path d="M155.212 158.648C155.739 158.648 156.166 158.221 156.166 157.694C156.166 157.167 155.739 156.74 155.212 156.74C154.685 156.74 154.258 157.167 154.258 157.694C154.258 158.221 154.685 158.648 155.212 158.648Z" fill="white"></path>
<path d="M155.214 500.137C155.595 500.137 155.904 499.828 155.904 499.446C155.904 499.065 155.595 498.756 155.214 498.756C154.833 498.756 154.523 499.065 154.523 499.446C154.523 499.828 154.833 500.137 155.214 500.137Z" fill="white"></path>
<path d="M291.745 169.599C292.305 169.599 292.759 169.145 292.759 168.585C292.759 168.024 292.305 167.57 291.745 167.57C291.185 167.57 290.73 168.024 290.73 168.585C290.73 169.145 291.185 169.599 291.745 169.599Z" fill="white"></path>
<g clip-path="url(#clip2_32_1347)">
<path d="M400 730C576.731 730 720 586.731 720 410C720 233.269 576.731 90 400 90C223.269 90 80 233.269 80 410C80 586.731 223.269 730 400 730Z" fill="#FFFFFA"></path>
<path d="M339.047 585.238C355.878 585.238 369.523 571.593 369.523 554.761C369.523 537.93 355.878 524.285 339.047 524.285C322.215 524.285 308.57 537.93 308.57 554.761C308.57 571.593 322.215 585.238 339.047 585.238Z" fill="#F0F0EE"></path>
<path d="M202.856 293.81C210.746 293.81 217.142 287.414 217.142 279.524C217.142 271.634 210.746 265.238 202.856 265.238C194.966 265.238 188.57 271.634 188.57 279.524C188.57 287.414 194.966 293.81 202.856 293.81Z" fill="#F0F0EE"></path>
<path d="M418.095 156.667C428.089 156.667 436.19 148.566 436.19 138.572C436.19 128.578 428.089 120.477 418.095 120.477C408.102 120.477 400 128.578 400 138.572C400 148.566 408.102 156.667 418.095 156.667Z" fill="#F0F0EE" stroke="#FFFFFA" stroke-width="4"></path>
<path d="M458.094 330C477.555 330 493.332 314.223 493.332 294.762C493.332 275.3 477.555 259.523 458.094 259.523C438.632 259.523 422.855 275.3 422.855 294.762C422.855 314.223 438.632 330 458.094 330Z" fill="#F0F0EE" stroke="#FFFFFA" stroke-width="4"></path>
<path d="M606.667 476.666C646.116 476.666 678.095 444.686 678.095 405.237C678.095 365.788 646.116 333.809 606.667 333.809C567.218 333.809 535.238 365.788 535.238 405.237C535.238 444.686 567.218 476.666 606.667 476.666Z" fill="#F0F0EE" stroke="#FFFFFA" stroke-width="4"></path>
<path d="M422.855 463.334C444.947 463.334 462.855 445.425 462.855 423.334C462.855 401.243 444.947 383.334 422.855 383.334C400.764 383.334 382.855 401.243 382.855 423.334C382.855 445.425 400.764 463.334 422.855 463.334Z" fill="#F0F0EE" stroke="#FFFFFA" stroke-width="4"></path>
<path d="M289.525 250C305.304 250 318.096 237.208 318.096 221.429C318.096 205.649 305.304 192.857 289.525 192.857C273.745 192.857 260.953 205.649 260.953 221.429C260.953 237.208 273.745 250 289.525 250Z" fill="#F0F0EE" stroke="#FFFFFA" stroke-width="4"></path>
<path d="M314.285 352.857C322.701 352.857 329.523 346.035 329.523 337.619C329.523 329.203 322.701 322.381 314.285 322.381C305.869 322.381 299.047 329.203 299.047 337.619C299.047 346.035 305.869 352.857 314.285 352.857Z" fill="#F0F0EE" stroke="#FFFFFA" stroke-width="4"></path>
<path d="M236.733 133.809C214.387 171.523 199.568 214.439 194.409 260.369C187.532 263.56 182.762 270.527 182.762 278.607C182.762 285.868 186.614 292.229 192.385 295.76C192.384 296.074 192.381 296.388 192.381 296.702C192.381 394.99 236.405 482.739 305.347 540.37C303.679 544.536 302.762 549.083 302.762 553.845C302.762 573.885 319.008 590.13 339.048 590.13C349.135 590.13 358.259 586.012 364.835 579.368C405.372 599.622 450.915 610.987 499.048 610.987C571.892 610.987 638.804 584.959 691.411 541.48C641.053 652.143 529.512 729.083 400 729.083C223.269 729.083 80.0002 585.814 80 409.083C80 291.992 142.889 189.588 236.733 133.809Z" fill="#F0F0EE"></path>
</g>
<path d="M-200 473.833L-173.438 490.917L-64.375 525.917L-3.75 498L59.6875 543.417L70.9375 537.583L161.25 598.417L172.5 587.583L231.562 641.333L246.25 636.75L282.5 656.333L323.75 645.083L356.875 626.333L389.688 636.75L433.75 626.333L481.25 598.833L568.438 653L628.438 648L676.562 622.167L688.75 626.333L830 550.083L924.375 484.25L945.625 453L1000 504.667V804.25H-200V473.833Z" fill="#006C84"></path>
<path d="M434.066 626.332L481.566 598.832V612.582L471.254 621.332L434.066 626.332Z" fill="url(#paint0_linear_32_1347)"></path>
<path d="M390.004 636.749L357.191 626.332V632.165L361.566 635.499L390.004 636.749Z" fill="url(#paint1_linear_32_1347)"></path>
<path d="M628.75 648.001L676.875 622.168V634.668L666.25 641.751L628.75 648.001Z" fill="url(#paint2_linear_32_1347)"></path>
<path d="M-3.44141 498L30.3086 522.167L8.74609 520.5L2.18359 518.417L-3.44141 514.25V498Z" fill="url(#paint3_linear_32_1347)"></path>
<path d="M71.2539 537.582L100.941 557.582L82.5039 554.665L73.7539 547.582L71.2539 544.249V537.582Z" fill="url(#paint4_linear_32_1347)"></path>
<path d="M172.812 587.582L212.188 623.415L186.563 613.415L177.813 605.915L172.812 597.165V587.582Z" fill="url(#paint5_linear_32_1347)"></path>
<path d="M246.566 636.75L282.816 656.333L260.629 653L253.441 650.083L246.566 643.833V636.75Z" fill="url(#paint6_linear_32_1347)"></path>
<path d="M1000 801.333H-200V627.089L-127.188 588L-45.625 627.089L0.3125 625.502L42.5 642.812H77.1875L127.188 633.147L229.375 673.968L258.125 669.208L408.438 783.417L1000 801.333Z" fill="#002344"></path>
<path d="M-200 776.91L-171.562 766.91L-105 776.91L-2.8125 757.326H70.9375L125.938 747.326L172.188 766.91L230.312 747.326L281.875 726.16L323.75 720.272L356.875 710.961L388.125 716.164L433.438 710.961L480.938 697.268L568.125 724.517L628.125 721.915L676.562 708.77L688.438 710.961L830 672.758L907.188 629.9L945.625 624.286L1000 588V799.827H-200V776.91Z" fill="#00162C"></path>
</g>
</g>
<defs>
<linearGradient id="SvgjsLinearGradient1019" x1="457.816" y1="598.832" x2="457.816" y2="626.332" gradientUnits="userSpaceOnUse">
<stop stop-color="white"></stop>
<stop offset="1" stop-color="white" stop-opacity="0"></stop>
</linearGradient>
<linearGradient id="SvgjsLinearGradient1018" x1="390.004" y1="631.54" x2="357.191" y2="631.54" gradientUnits="userSpaceOnUse">
<stop stop-color="white" stop-opacity="0"></stop>
<stop offset="1" stop-color="white"></stop>
</linearGradient>
<linearGradient id="SvgjsLinearGradient1017" x1="652.812" y1="622.168" x2="652.812" y2="648.001" gradientUnits="userSpaceOnUse">
<stop stop-color="white"></stop>
<stop offset="1" stop-color="white" stop-opacity="0"></stop>
</linearGradient>
<linearGradient id="SvgjsLinearGradient1016" x1="13.4336" y1="498" x2="13.4336" y2="522.167" gradientUnits="userSpaceOnUse">
<stop stop-color="white"></stop>
<stop offset="1" stop-color="white" stop-opacity="0"></stop>
</linearGradient>
<linearGradient id="SvgjsLinearGradient1015" x1="86.0977" y1="537.582" x2="86.0977" y2="557.582" gradientUnits="userSpaceOnUse">
<stop stop-color="white"></stop>
<stop offset="1" stop-color="white" stop-opacity="0"></stop>
</linearGradient>
<linearGradient id="SvgjsLinearGradient1014" x1="192.5" y1="587.582" x2="192.5" y2="623.415" gradientUnits="userSpaceOnUse">
<stop stop-color="white"></stop>
<stop offset="1" stop-color="white" stop-opacity="0"></stop>
</linearGradient>
<linearGradient id="SvgjsLinearGradient1013" x1="264.691" y1="636.75" x2="264.691" y2="656.333" gradientUnits="userSpaceOnUse">
<stop stop-color="white"></stop>
<stop offset="1" stop-color="white" stop-opacity="0"></stop>
</linearGradient>
<clipPath id="SvgjsClipPath1012">
<rect width="800" height="800" rx="162.5" fill="white"></rect>
</clipPath>
<clipPath id="SvgjsClipPath1011">
<rect width="1600" height="800" fill="white" transform="translate(-400)"></rect>
</clipPath>
<clipPath id="SvgjsClipPath1010">
<rect width="640" height="640" fill="white" transform="translate(80 90)"></rect>
</clipPath>
</defs>
</svg><style>@media (prefers-color-scheme: light) { :root { filter: none; } }
@media (prefers-color-scheme: dark) { :root { filter: none; } }
</style></svg>