<svg width="800" height="800" viewBox="0 0 800 800" fill="none" xmlns="http://www.w3.org/2000/svg">
<path fill-rule="evenodd" clip-rule="evenodd" d="M400 800C346.105 800 293.694 789.39 244.224 768.464C196.57 748.31 153.818 719.503 117.158 682.844C80.5021 646.189 51.6939 603.436 31.5338 555.772C10.6101 506.306 0 453.896 0 400.001C0 346.106 10.6095 293.696 31.5344 244.226C51.6927 196.566 80.5009 153.813 117.158 117.157C153.814 80.5009 196.566 51.6932 244.227 31.5332C293.7 10.6095 346.109 0 400 0C453.893 0 506.302 10.6095 555.774 31.5344C603.432 51.6921 646.185 80.4991 682.842 117.156C719.501 153.815 748.31 196.57 768.468 244.233C789.391 293.697 800 346.105 800 400.001C800 453.895 789.39 506.305 768.465 555.776C748.311 603.429 719.505 646.18 682.846 682.84C646.186 719.499 603.434 748.308 555.774 768.466C506.304 789.391 453.893 800 400 800Z" fill="#E2FFB5" fill-opacity="0.05"/>
<path fill-rule="evenodd" clip-rule="evenodd" d="M400.001 759.561C351.548 759.561 304.437 750.026 259.979 731.22C217.144 713.105 178.712 687.208 145.754 654.25C112.798 621.295 86.8993 582.862 68.7786 540.02C49.9738 495.564 40.4395 448.454 40.4395 400.001C40.4395 351.548 49.9738 304.438 68.7786 259.98C86.8988 217.139 112.797 178.707 145.753 145.752C178.708 112.796 217.14 86.899 259.982 68.7783C304.441 49.9735 351.551 40.4392 400.001 40.4392C448.452 40.4392 495.562 49.9741 540.021 68.7789C582.859 86.8973 621.291 112.794 654.248 145.751C687.207 178.71 713.104 217.143 731.224 259.985C750.027 304.437 759.561 351.546 759.561 400.001C759.561 448.454 750.026 495.564 731.221 540.023C713.105 582.855 687.209 621.286 654.251 654.246C621.294 687.203 582.861 713.102 540.021 731.221C495.562 750.026 448.452 759.561 400.001 759.561Z" fill="#E2FFB5" fill-opacity="0.05"/>
<path fill-rule="evenodd" clip-rule="evenodd" d="M400 719.122C356.989 719.122 315.179 710.661 275.732 693.976C237.717 677.899 203.606 654.912 174.348 625.655C145.092 596.4 122.104 562.288 106.023 524.266C89.3372 484.821 80.8779 443.012 80.8779 400.001C80.8779 356.99 89.3372 315.18 106.023 275.733C122.104 237.713 145.091 203.602 174.348 174.347C203.601 145.092 237.713 122.104 275.734 106.023C315.182 89.3385 356.991 80.8781 400 80.8781C443.01 80.8781 484.82 89.3385 524.267 106.023C562.284 122.103 596.396 145.09 625.653 174.346C654.911 203.604 677.898 237.717 693.978 275.737C710.662 315.178 719.122 356.987 719.122 400.001C719.122 443.012 710.662 484.822 693.976 524.269C677.899 562.282 654.912 596.394 625.655 625.652C596.4 654.908 562.288 677.895 524.267 693.977C484.82 710.662 443.01 719.122 400 719.122Z" fill="#E2FFB5" fill-opacity="0.05"/>
<path fill-rule="evenodd" clip-rule="evenodd" d="M400 678.683C362.43 678.683 325.921 671.298 291.486 656.732C258.289 642.692 228.499 622.615 202.943 597.06C177.387 571.505 157.31 541.714 143.268 508.514C128.703 474.079 121.317 437.57 121.317 400.001C121.317 362.431 128.703 325.921 143.268 291.486C157.31 258.287 177.387 228.496 202.942 202.941C228.496 177.387 258.287 157.31 291.487 143.268C325.923 128.702 362.432 121.317 400 121.317C437.569 121.317 474.078 128.702 508.514 143.268C541.713 157.309 571.503 177.386 597.059 202.941C622.616 228.498 642.693 258.29 656.733 291.489C671.298 325.921 678.683 362.43 678.683 400.001C678.683 437.57 671.298 474.08 656.732 508.514C642.693 541.711 622.615 571.502 597.06 597.058C571.506 622.612 541.715 642.689 508.514 656.732C474.079 671.297 437.57 678.683 400 678.683Z" fill="#E2FFB5" fill-opacity="0.05"/>
<path fill-rule="evenodd" clip-rule="evenodd" d="M400.001 638.244C367.873 638.244 336.664 631.933 307.24 619.487C278.863 607.486 253.392 590.318 231.537 568.464C209.683 546.611 192.517 521.14 180.512 492.76C168.066 463.337 161.757 432.128 161.757 400C161.757 367.872 168.066 336.663 180.512 307.24C192.516 278.86 209.684 253.389 231.537 231.536C253.391 209.683 278.861 192.515 307.241 180.512C336.665 168.067 367.874 161.756 400.001 161.756C432.128 161.756 463.338 168.067 492.761 180.512C521.14 192.515 546.61 209.682 568.465 231.536C590.319 253.39 607.486 278.861 619.489 307.241C631.934 336.663 638.244 367.872 638.244 400C638.244 432.128 631.935 463.337 619.489 492.761C607.486 521.139 590.319 546.609 568.465 568.464C546.612 590.317 521.141 607.484 492.761 619.488C463.338 631.933 432.128 638.244 400.001 638.244Z" fill="#E2FFB5" fill-opacity="0.05"/>
<path fill-rule="evenodd" clip-rule="evenodd" d="M400 597.805C373.315 597.805 347.406 592.569 322.993 582.243C299.434 572.279 278.284 558.023 260.131 539.869C241.978 521.716 227.721 500.567 217.756 477.007C207.43 452.595 202.195 426.686 202.195 400.001C202.195 373.314 207.43 347.406 217.756 322.994C227.721 299.434 241.978 278.284 260.131 260.131C278.284 241.977 299.434 227.722 322.993 217.756C347.406 207.431 373.314 202.195 400 202.195C426.686 202.195 452.595 207.431 477.007 217.757C500.566 227.722 521.716 241.977 539.869 260.131C558.022 278.284 572.279 299.434 582.244 322.994C592.569 347.406 597.805 373.314 597.805 400.001C597.805 426.686 592.569 452.595 582.244 477.007C572.279 500.567 558.022 521.716 539.869 539.869C521.716 558.023 500.566 572.278 477.007 582.243C452.595 592.569 426.686 597.805 400 597.805Z" fill="#E2FFB5" fill-opacity="0.05"/>
<path fill-rule="evenodd" clip-rule="evenodd" d="M672.8 400.4C672.8 550.842 550.843 672.799 400.401 672.799C249.958 672.799 128 550.842 128 400.4C128 249.958 249.958 128 400.401 128C550.843 128 672.8 249.958 672.8 400.4Z" fill="url(#paint0_linear_44_7533)"/>
<path d="M672.797 399.03C672.796 398.899 672.795 398.769 672.794 398.638C672.488 350.245 659.562 304.845 637.142 265.565C634.297 260.938 631.302 256.415 628.165 252C620.685 261.385 612.794 276.949 619.59 296.634C623.732 308.575 628.996 318.449 634.028 327.888C642.905 344.539 651.061 359.837 651.061 382.743C651.061 400.355 662.572 401.444 672.797 399.03Z" fill="#71B880" fill-opacity="0.63"/>
<path d="M161.289 530.996C182.447 531.736 200.394 519.921 216.819 509.107C231.505 499.439 244.974 490.571 258.435 492.193C279.836 494.749 284.895 514.594 291.888 542.028C296.622 560.6 302.243 582.651 314.422 605.17C328.886 631.897 330.466 650.763 328.204 663.128C256.331 643.423 196.329 595.015 161.289 530.996Z" fill="url(#paint1_radial_44_7533)"/>
<path d="M590.62 205.418C589.242 207.086 587.878 208.748 586.523 210.398C571.084 229.205 556.924 246.454 537.952 253.354C507.798 264.346 491.823 247.97 469.739 225.332C454.788 210.007 437.037 191.811 410.192 177.294C379.409 160.661 368.267 143.671 365.178 130.256C376.708 128.768 388.465 128 400.401 128C474.411 128 541.527 157.516 590.62 205.418Z" fill="url(#paint2_linear_44_7533)"/>
<path d="M136.605 332.207C159.534 243.257 226.265 171.903 312.428 142.518C320.991 172.395 288.592 185.938 250.847 199.133C222.062 209.188 223.617 220.46 225.872 236.81C227.384 247.774 229.212 261.022 222.415 277.717C214.161 297.934 216.052 310.434 217.767 321.771C219.58 333.752 221.196 344.433 210.437 361.551C196.448 383.835 159.529 354.269 136.605 332.207Z" fill="url(#paint3_linear_44_7533)"/>
<path d="M563.457 426.739C549.724 431.117 546.245 438.187 550.548 446.762C554.851 455.337 572.064 453.923 580.67 466.785C589.276 479.647 610.838 495.383 616.56 466.785C622.328 438.187 595.044 416.704 563.457 426.739Z" fill="url(#paint4_radial_44_7533)"/>
<path d="M476.275 513.449C441.817 514.169 435.491 471.688 392.966 468.898C350.441 466.107 296.956 527.732 351.418 541.492C405.881 555.253 421.817 552.276 453.884 591.537C485.951 630.798 538.456 625.191 564.834 585.799C591.157 546.391 591.897 510.907 476.275 513.449Z" fill="url(#paint5_radial_44_7533)"/>
<path d="M409.812 287.734C385.958 291.495 368.751 255.282 339.64 256.337C310.528 257.393 290.523 351.241 326.903 359.816C363.282 368.391 374.549 364.075 393.203 399.49C411.857 434.905 448.838 396.221 470.546 355.49C492.218 314.749 491.812 287.734 409.812 287.734Z" fill="url(#paint6_radial_44_7533)"/>
<path fill-rule="evenodd" clip-rule="evenodd" d="M672.8 400.4C672.8 550.842 550.843 672.799 400.401 672.799C249.958 672.799 128 550.842 128 400.4C128 249.958 249.958 128 400.401 128C550.843 128 672.8 249.958 672.8 400.4Z" fill="url(#paint7_radial_44_7533)"/>
<defs>
<linearGradient id="paint0_linear_44_7533" x1="400" y1="0" x2="400" y2="800" gradientUnits="userSpaceOnUse">
<stop stop-color="#00ACD8"/>
<stop offset="1" stop-color="#0983BD"/>
</linearGradient>
<radialGradient id="paint1_radial_44_7533" cx="0" cy="0" r="1" gradientUnits="userSpaceOnUse" gradientTransform="translate(303.827 556.308) rotate(68.4633) scale(261.983 260.606)">
<stop stop-color="#71B880"/>
</radialGradient>
<linearGradient id="paint2_linear_44_7533" x1="497.944" y1="329.041" x2="316.211" y2="680.62" gradientUnits="userSpaceOnUse">
<stop offset="0.764423" stop-color="#71B880" stop-opacity="0.81"/>
</linearGradient>
<linearGradient id="paint3_linear_44_7533" x1="225.246" y1="359.484" x2="728.651" y2="705.858" gradientUnits="userSpaceOnUse">
<stop offset="0.341346" stop-color="#71B880" stop-opacity="0.85"/>
</linearGradient>
<radialGradient id="paint4_radial_44_7533" cx="0" cy="0" r="1" gradientUnits="userSpaceOnUse" gradientTransform="translate(400 400) rotate(90) scale(400)">
<stop offset="0.447115" stop-color="#71B880" stop-opacity="0.84"/>
</radialGradient>
<radialGradient id="paint5_radial_44_7533" cx="0" cy="0" r="1" gradientUnits="userSpaceOnUse" gradientTransform="translate(400 400) rotate(90) scale(400)">
<stop offset="0.774038" stop-color="#71B880" stop-opacity="0.98"/>
</radialGradient>
<radialGradient id="paint6_radial_44_7533" cx="0" cy="0" r="1" gradientUnits="userSpaceOnUse" gradientTransform="translate(400 400) rotate(90) scale(400)">
<stop offset="0.543269" stop-color="#71B880" stop-opacity="0.84"/>
</radialGradient>
<radialGradient id="paint7_radial_44_7533" cx="0" cy="0" r="1" gradientUnits="userSpaceOnUse" gradientTransform="translate(400.4 400.4) rotate(90) scale(272.4 272.4)">
<stop stop-color="#71B880" stop-opacity="0.38"/>
<stop offset="1" stop-color="#E2FFB5" stop-opacity="0"/>
</radialGradient>
</defs>
</svg>
