<svg width="1107" height="952" viewBox="0 0 1107 952" fill="none" xmlns="http://www.w3.org/2000/svg">
<path fill-rule="evenodd" clip-rule="evenodd" d="M846.5 66C847.88 66 849 64.8805 849 63.5C849 62.1195 847.88 61 846.5 61C845.12 61 844 62.1195 844 63.5C844 64.8805 845.12 66 846.5 66ZM147.5 46C148.88 46 150 44.8805 150 43.5C150 42.1195 148.88 41 147.5 41C146.12 41 145 42.1195 145 43.5C145 44.8805 146.12 46 147.5 46ZM2.5 575C3.8805 575 5 573.88 5 572.5C5 571.12 3.8805 570 2.5 570C1.1195 570 0 571.12 0 572.5C0 573.88 1.1195 575 2.5 575ZM44.5 394C45.881 394 47 392.881 47 391.5C47 390.119 45.881 389 44.5 389C43.119 389 42 390.119 42 391.5C42 392.881 43.119 394 44.5 394ZM708.5 95C709.881 95 711 93.881 711 92.5C711 91.119 709.881 90 708.5 90C707.119 90 706 91.119 706 92.5C706 93.881 707.119 95 708.5 95ZM484.5 15C485.881 15 487 13.881 487 12.5C487 11.119 485.881 10 484.5 10C483.119 10 482 11.119 482 12.5C482 13.881 483.119 15 484.5 15ZM229.5 216C230.881 216 232 214.881 232 213.5C232 212.119 230.881 211 229.5 211C228.119 211 227 212.119 227 213.5C227 214.881 228.119 216 229.5 216ZM278.5 66C279.881 66 281 64.881 281 63.5C281 62.119 279.881 61 278.5 61C277.119 61 276 62.119 276 63.5C276 64.881 277.119 66 278.5 66ZM678.5 5C679.881 5 681 3.881 681 2.5C681 1.119 679.881 0 678.5 0C677.119 0 676 1.119 676 2.5C676 3.881 677.119 5 678.5 5ZM404.944 156.063C403.598 156.37 402.756 157.71 403.063 159.056C403.371 160.402 404.71 161.244 406.056 160.937C407.402 160.629 408.244 159.289 407.937 157.944C407.629 156.598 406.29 155.756 404.944 156.063ZM825.944 246.063C824.598 246.37 823.756 247.71 824.063 249.056C824.37 250.402 825.711 251.244 827.056 250.937C828.402 250.629 829.244 249.29 828.937 247.943C828.63 246.598 827.29 245.756 825.944 246.063ZM122.944 457.063C121.598 457.37 120.756 458.711 121.063 460.056C121.37 461.402 122.71 462.244 124.056 461.937C125.402 461.629 126.244 460.29 125.937 458.944C125.63 457.598 124.29 456.756 122.944 457.063ZM248.944 660.063C247.597 660.37 246.756 661.71 247.064 663.056C247.37 664.403 248.71 665.244 250.056 664.937C251.403 664.63 252.244 663.289 251.936 661.944C251.63 660.598 250.29 659.755 248.944 660.063ZM165.944 790.063C164.598 790.37 163.756 791.71 164.063 793.056C164.371 794.402 165.711 795.244 167.056 794.937C168.402 794.629 169.244 793.29 168.937 791.943C168.629 790.598 167.289 789.756 165.944 790.063ZM485.944 778.063C484.598 778.37 483.756 779.71 484.063 781.056C484.371 782.402 485.711 783.244 487.056 782.937C488.402 782.629 489.244 781.29 488.937 779.943C488.629 778.598 487.289 777.756 485.944 778.063ZM656.944 708.063C655.598 708.371 654.756 709.71 655.063 711.056C655.371 712.402 656.711 713.244 658.056 712.937C659.402 712.629 660.244 711.29 659.937 709.943C659.629 708.598 658.289 707.756 656.944 708.063ZM797.944 877.063C796.598 877.37 795.756 878.711 796.063 880.056C796.37 881.402 797.71 882.244 799.056 881.937C800.402 881.629 801.244 880.289 800.937 878.944C800.63 877.598 799.29 876.756 797.944 877.063ZM980.944 485.063C979.598 485.371 978.756 486.711 979.063 488.056C979.37 489.402 980.711 490.244 982.056 489.937C983.402 489.629 984.244 488.289 983.937 486.944C983.629 485.598 982.29 484.756 980.944 485.063ZM1103.94 301.063C1102.6 301.371 1101.76 302.711 1102.06 304.056C1102.37 305.402 1103.71 306.244 1105.06 305.937C1106.4 305.629 1107.24 304.289 1106.94 302.944C1106.63 301.598 1105.29 300.756 1103.94 301.063ZM610.5 819C611.881 819 613 817.881 613 816.5C613 815.119 611.881 814 610.5 814C609.119 814 608 815.119 608 816.5C608 817.881 609.119 819 610.5 819ZM536.5 952C537.881 952 539 950.881 539 949.5C539 948.119 537.881 947 536.5 947C535.119 947 534 948.119 534 949.5C534 950.881 535.119 952 536.5 952ZM780.5 695C781.881 695 783 693.881 783 692.5C783 691.119 781.881 690 780.5 690C779.119 690 778 691.119 778 692.5C778 693.881 779.119 695 780.5 695ZM36.5 711C37.881 711 39 709.881 39 708.5C39 707.119 37.881 706 36.5 706C35.119 706 34 707.119 34 708.5C34 709.881 35.119 711 36.5 711ZM1008.5 407C1009.88 407 1011 405.881 1011 404.5C1011 403.119 1009.88 402 1008.5 402C1007.12 402 1006 403.119 1006 404.5C1006 405.881 1007.12 407 1008.5 407ZM300.5 891C301.88 891 303 889.88 303 888.5C303 887.12 301.88 886 300.5 886C299.12 886 298 887.12 298 888.5C298 889.88 299.12 891 300.5 891ZM986.5 838C987.88 838 989 836.88 989 835.5C989 834.12 987.88 833 986.5 833C985.12 833 984 834.12 984 835.5C984 836.88 985.12 838 986.5 838ZM899.5 630C900.88 630 902 628.88 902 627.5C902 626.12 900.88 625 899.5 625C898.12 625 897 626.12 897 627.5C897 628.88 898.12 630 899.5 630ZM943.5 243C944.88 243 946 241.88 946 240.5C946 239.12 944.88 238 943.5 238C942.12 238 941 239.12 941 240.5C941 241.88 942.12 243 943.5 243ZM421.5 101C422.88 101 424 99.8805 424 98.5C424 97.1195 422.88 96 421.5 96C420.12 96 419 97.1195 419 98.5C419 99.8805 420.12 101 421.5 101Z" fill="white"/>
<g clip-path="url(#clip0_48_8186)">
<path fill-rule="evenodd" clip-rule="evenodd" d="M554 876C500.105 876 447.694 865.39 398.224 844.464C350.57 824.31 307.818 795.503 271.158 758.844C234.502 722.189 205.694 679.436 185.534 631.772C164.61 582.306 154 529.896 154 476.001C154 422.106 164.61 369.696 185.534 320.226C205.693 272.566 234.501 229.813 271.158 193.157C307.814 156.501 350.566 127.693 398.227 107.533C447.7 86.6095 500.109 76 554 76C607.893 76 660.302 86.6095 709.774 107.534C757.432 127.692 800.185 156.499 836.842 193.156C873.501 229.815 902.31 272.57 922.468 320.233C943.391 369.697 954 422.105 954 476.001C954 529.895 943.39 582.305 922.465 631.776C902.311 679.429 873.505 722.18 836.846 758.84C800.186 795.499 757.434 824.308 709.774 844.466C660.304 865.391 607.893 876 554 876Z" fill="#E2FFB5" fill-opacity="0.05"/>
<path fill-rule="evenodd" clip-rule="evenodd" d="M554.001 835.561C505.548 835.561 458.437 826.026 413.979 807.22C371.144 789.105 332.712 763.208 299.754 730.25C266.798 697.295 240.899 658.862 222.779 616.02C203.974 571.564 194.439 524.454 194.439 476.001C194.439 427.548 203.974 380.438 222.779 335.98C240.899 293.139 266.797 254.707 299.753 221.752C332.708 188.796 371.14 162.899 413.982 144.778C458.441 125.973 505.551 116.439 554.001 116.439C602.452 116.439 649.562 125.974 694.021 144.779C736.859 162.897 775.291 188.794 808.248 221.751C841.207 254.71 867.104 293.143 885.224 335.985C904.027 380.437 913.561 427.546 913.561 476.001C913.561 524.454 904.026 571.564 885.221 616.023C867.105 658.855 841.209 697.286 808.251 730.246C775.294 763.203 736.861 789.102 694.021 807.221C649.562 826.026 602.452 835.561 554.001 835.561Z" fill="#E2FFB5" fill-opacity="0.05"/>
<path fill-rule="evenodd" clip-rule="evenodd" d="M553.999 795.122C510.988 795.122 469.178 786.661 429.731 769.976C391.716 753.899 357.605 730.912 328.347 701.655C299.091 672.4 276.103 638.288 260.022 600.266C243.336 560.821 234.877 519.012 234.877 476.001C234.877 432.99 243.336 391.18 260.022 351.733C276.103 313.713 299.09 279.602 328.347 250.347C357.6 221.092 391.712 198.104 429.733 182.023C469.181 165.338 510.99 156.878 553.999 156.878C597.009 156.878 638.819 165.338 678.266 182.023C716.283 198.103 750.395 221.09 779.652 250.346C808.91 279.604 831.897 313.717 847.977 351.737C864.661 391.178 873.121 432.987 873.121 476.001C873.121 519.012 864.661 560.822 847.975 600.269C831.898 638.282 808.911 672.394 779.654 701.652C750.399 730.908 716.287 753.895 678.266 769.977C638.819 786.662 597.009 795.122 553.999 795.122Z" fill="#E2FFB5" fill-opacity="0.05"/>
<path fill-rule="evenodd" clip-rule="evenodd" d="M553.999 754.683C516.429 754.683 479.92 747.298 445.485 732.732C412.288 718.692 382.498 698.615 356.942 673.06C331.386 647.505 311.309 617.714 297.267 584.514C282.702 550.079 275.316 513.57 275.316 476.001C275.316 438.431 282.702 401.921 297.267 367.486C311.309 334.287 331.386 304.496 356.941 278.941C382.495 253.387 412.286 233.31 445.486 219.268C479.922 204.702 516.431 197.317 553.999 197.317C591.568 197.317 628.077 204.702 662.513 219.268C695.712 233.309 725.502 253.386 751.058 278.941C776.615 304.498 796.692 334.29 810.732 367.489C825.297 401.921 832.682 438.43 832.682 476.001C832.682 513.57 825.297 550.08 810.731 584.514C796.692 617.711 776.614 647.502 751.059 673.058C725.505 698.612 695.714 718.689 662.513 732.732C628.078 747.297 591.569 754.683 553.999 754.683Z" fill="#E2FFB5" fill-opacity="0.05"/>
<path fill-rule="evenodd" clip-rule="evenodd" d="M554.002 714.244C521.874 714.244 490.665 707.933 461.241 695.487C432.864 683.486 407.393 666.318 385.538 644.464C363.684 622.611 346.518 597.14 334.513 568.76C322.067 539.337 315.758 508.128 315.758 476C315.758 443.872 322.067 412.663 334.513 383.24C346.517 354.86 363.685 329.389 385.538 307.536C407.392 285.683 432.862 268.515 461.242 256.512C490.666 244.067 521.875 237.756 554.002 237.756C586.129 237.756 617.339 244.067 646.762 256.512C675.141 268.515 700.611 285.682 722.466 307.536C744.32 329.39 761.487 354.861 773.49 383.241C785.935 412.663 792.245 443.872 792.245 476C792.245 508.128 785.936 539.337 773.49 568.761C761.487 597.139 744.32 622.609 722.466 644.464C700.613 666.317 675.142 683.484 646.762 695.488C617.339 707.933 586.129 714.244 554.002 714.244Z" fill="#E2FFB5" fill-opacity="0.05"/>
<path fill-rule="evenodd" clip-rule="evenodd" d="M554 673.805C527.315 673.805 501.406 668.569 476.993 658.243C453.434 648.279 432.284 634.023 414.131 615.869C395.978 597.716 381.721 576.567 371.756 553.007C361.43 528.595 356.195 502.686 356.195 476.001C356.195 449.314 361.43 423.406 371.756 398.994C381.721 375.434 395.978 354.284 414.131 336.131C432.284 317.977 453.434 303.722 476.993 293.756C501.406 283.431 527.314 278.195 554 278.195C580.686 278.195 606.595 283.431 631.007 293.757C654.566 303.722 675.716 317.977 693.869 336.131C712.022 354.284 726.279 375.434 736.244 398.994C746.569 423.406 751.805 449.314 751.805 476.001C751.805 502.686 746.569 528.595 736.244 553.007C726.279 576.567 712.022 597.716 693.869 615.869C675.716 634.023 654.566 648.278 631.007 658.243C606.595 668.569 580.686 673.805 554 673.805Z" fill="#E2FFB5" fill-opacity="0.05"/>
<path fill-rule="evenodd" clip-rule="evenodd" d="M826.8 476.4C826.8 626.842 704.843 748.799 554.401 748.799C403.958 748.799 282 626.842 282 476.4C282 325.958 403.958 204 554.401 204C704.843 204 826.8 325.958 826.8 476.4Z" fill="url(#paint0_linear_48_8186)"/>
<path d="M826.797 475.03C826.796 474.899 826.795 474.769 826.794 474.638C826.488 426.245 813.562 380.845 791.142 341.565C788.297 336.938 785.302 332.415 782.165 328C774.685 337.385 766.794 352.949 773.59 372.634C777.732 384.575 782.996 394.449 788.028 403.888C796.905 420.539 805.061 435.837 805.061 458.743C805.061 476.355 816.572 477.444 826.797 475.03Z" fill="#71B880" fill-opacity="0.63"/>
<path d="M315.289 606.996C336.447 607.736 354.394 595.921 370.819 585.107C385.505 575.439 398.974 566.571 412.435 568.193C433.836 570.749 438.895 590.594 445.888 618.028C450.622 636.6 456.243 658.651 468.422 681.17C482.886 707.897 484.466 726.763 482.204 739.128C410.331 719.423 350.329 671.015 315.289 606.996Z" fill="url(#paint1_radial_48_8186)"/>
<path d="M744.62 281.418C743.242 283.086 741.878 284.748 740.523 286.398C725.084 305.205 710.924 322.454 691.952 329.354C661.798 340.346 645.823 323.97 623.739 301.332C608.788 286.007 591.037 267.811 564.192 253.294C533.409 236.661 522.267 219.671 519.178 206.256C530.708 204.768 542.465 204 554.401 204C628.411 204 695.527 233.516 744.62 281.418Z" fill="url(#paint2_linear_48_8186)"/>
<path d="M290.605 408.207C313.534 319.257 380.265 247.903 466.428 218.518C474.991 248.395 442.592 261.938 404.847 275.133C376.062 285.188 377.617 296.46 379.872 312.81C381.384 323.774 383.212 337.022 376.415 353.717C368.161 373.934 370.052 386.434 371.767 397.771C373.58 409.752 375.196 420.433 364.437 437.551C350.448 459.835 313.529 430.269 290.605 408.207Z" fill="url(#paint3_linear_48_8186)"/>
<path d="M717.457 502.739C703.724 507.117 700.245 514.187 704.548 522.762C708.851 531.337 726.064 529.923 734.67 542.785C743.276 555.647 764.838 571.383 770.56 542.785C776.328 514.187 749.044 492.704 717.457 502.739Z" fill="url(#paint4_radial_48_8186)"/>
<path d="M630.275 589.449C595.817 590.169 589.491 547.688 546.966 544.898C504.441 542.107 450.956 603.732 505.418 617.492C559.881 631.253 575.817 628.276 607.884 667.537C639.951 706.798 692.456 701.191 718.834 661.799C745.157 622.391 745.897 586.907 630.275 589.449Z" fill="url(#paint5_radial_48_8186)"/>
<path d="M563.813 363.734C539.959 367.495 522.752 331.282 493.641 332.337C464.529 333.393 444.524 427.241 480.904 435.816C517.283 444.391 528.55 440.075 547.204 475.49C565.858 510.905 602.839 472.221 624.547 431.49C646.219 390.749 645.813 363.734 563.813 363.734Z" fill="url(#paint6_radial_48_8186)"/>
<path fill-rule="evenodd" clip-rule="evenodd" d="M826.8 476.4C826.8 626.842 704.843 748.799 554.401 748.799C403.958 748.799 282 626.842 282 476.4C282 325.958 403.958 204 554.401 204C704.843 204 826.8 325.958 826.8 476.4Z" fill="url(#paint7_radial_48_8186)"/>
</g>
<defs>
<linearGradient id="paint0_linear_48_8186" x1="554" y1="76" x2="554" y2="876" gradientUnits="userSpaceOnUse">
<stop stop-color="#00ACD8"/>
<stop offset="1" stop-color="#0983BD"/>
</linearGradient>
<radialGradient id="paint1_radial_48_8186" cx="0" cy="0" r="1" gradientUnits="userSpaceOnUse" gradientTransform="translate(457.827 632.308) rotate(68.4633) scale(261.983 260.606)">
<stop stop-color="#71B880"/>
</radialGradient>
<linearGradient id="paint2_linear_48_8186" x1="651.944" y1="405.041" x2="470.211" y2="756.62" gradientUnits="userSpaceOnUse">
<stop offset="0.764423" stop-color="#71B880" stop-opacity="0.81"/>
</linearGradient>
<linearGradient id="paint3_linear_48_8186" x1="379.246" y1="435.484" x2="882.651" y2="781.858" gradientUnits="userSpaceOnUse">
<stop offset="0.341346" stop-color="#71B880" stop-opacity="0.85"/>
</linearGradient>
<radialGradient id="paint4_radial_48_8186" cx="0" cy="0" r="1" gradientUnits="userSpaceOnUse" gradientTransform="translate(554 476) rotate(90) scale(400 400)">
<stop offset="0.447115" stop-color="#71B880" stop-opacity="0.84"/>
</radialGradient>
<radialGradient id="paint5_radial_48_8186" cx="0" cy="0" r="1" gradientUnits="userSpaceOnUse" gradientTransform="translate(554 476) rotate(90) scale(400 400)">
<stop offset="0.774038" stop-color="#71B880" stop-opacity="0.98"/>
</radialGradient>
<radialGradient id="paint6_radial_48_8186" cx="0" cy="0" r="1" gradientUnits="userSpaceOnUse" gradientTransform="translate(554.001 476) rotate(90) scale(400 400)">
<stop offset="0.543269" stop-color="#71B880" stop-opacity="0.84"/>
</radialGradient>
<radialGradient id="paint7_radial_48_8186" cx="0" cy="0" r="1" gradientUnits="userSpaceOnUse" gradientTransform="translate(554.4 476.4) rotate(90) scale(272.4 272.4)">
<stop stop-color="#71B880" stop-opacity="0.38"/>
<stop offset="1" stop-color="#E2FFB5" stop-opacity="0"/>
</radialGradient>
<clipPath id="clip0_48_8186">
<rect width="800" height="800" fill="white" transform="translate(154 76)"/>
</clipPath>
</defs>
</svg>
