<svg xmlns="http://www.w3.org/2000/svg" fill="none" viewBox="0 0 750 750">
  <path fill="url(#a)" fill-rule="evenodd" d="M647.8 370.4c0 150.442-121.957 272.399-272.399 272.399C224.958 642.799 103 520.842 103 370.4S224.958 98 375.401 98C525.843 98 647.8 219.958 647.8 370.4Z" clip-rule="evenodd"/>
  <path fill="url(#b)" fill-rule="evenodd" d="M240.667 133.6c16.489-9.402 34.055-17.132 52.468-22.957 3.666 2.344 6.041 6.031 6.041 10.157 0 7.04-6.912 12.8-15.36 12.8h-43.149Zm-64.749 51.303c9.468-10.178 19.706-19.63 30.621-28.264h123.357c8.448 0 15.36 5.761 15.36 12.8 0 7.04-6.912 12.801-15.36 12.801h-107.52c-8.448 0-15.36 5.76-15.36 12.8 0 7.04 6.912 12.8 15.36 12.8h130.048c8.448 0 15.359 5.759 15.359 12.799 0 7.04-6.911 12.8-15.359 12.8H252.071c-8.447 0-15.359 5.761-15.359 12.801s6.912 12.8 15.359 12.8h83.456c8.449 0 15.361 5.76 15.361 12.8 0 7.04-6.912 12.799-15.361 12.799h-6.655c-8.448 0-15.36 5.761-15.36 12.8 0 7.04 6.912 12.801 15.36 12.801h122.88c8.447 0 15.359 5.76 15.359 12.8 0 7.04-6.912 12.8-15.359 12.8h-261.12c-8.448 0-15.36-5.76-15.36-12.8 0-7.04 6.912-12.8 15.36-12.8h23.552c8.448 0 15.36-5.761 15.36-12.801 0-7.039-6.912-12.8-15.36-12.8h-97.409c2.896-8.737 6.222-17.279 9.954-25.599h2.462c8.449 0 15.361-5.76 15.361-12.8 0-4.166-2.421-7.885-6.149-10.226 5.56-9.786 11.709-19.193 18.399-28.174h9.765c8.449 0 15.361-5.76 15.361-12.8 0-4.114-2.361-7.791-6.01-10.137Zm-70.246 223.799c2.179-2.21 3.491-5.034 3.491-8.101 0-3.882-2.103-7.376-5.405-9.729-.502-6.758-.758-13.585-.758-20.472 0-2.743.041-5.477.121-8.2H208.68c8.448 0 15.359 5.76 15.359 12.8 0 7.04-6.911 12.8-15.359 12.8h-.189c-8.449 0-15.361 5.761-15.361 12.801s6.912 12.8 15.361 12.8h90.469c8.448 0 15.359 5.759 15.359 12.799 0 7.04-6.911 12.8-15.359 12.8H135.786c-8.448 0-15.36 5.76-15.36 12.8 0 7.04 6.912 12.801 15.36 12.801h3.774c8.447 0 15.359 5.76 15.359 12.8 0 7.04-6.912 12.799-15.359 12.799h-8.87c-12.37-25.22-20.956-52.633-25.018-81.498Zm110.546 182.771c-9.722-7.012-18.964-14.651-27.665-22.856.267-.011.536-.017.806-.017h17.409c8.448 0 15.36 5.761 15.36 12.801 0 4.076-2.318 7.724-5.91 10.072Zm261.389 31.503c-31.56 12.783-66.061 19.823-102.206 19.823-27.849 0-54.722-4.179-80.026-11.945-.021-.269-.031-.54-.031-.814 0-7.04 6.912-12.8 15.36-12.8h154.112c5.32 0 10.032 2.285 12.791 5.736Zm124.048-100.834c-4.841 7.204-10.017 14.165-15.506 20.859h-13.814c-8.448 0-15.36-5.76-15.36-12.8 0-7.04 6.912-12.8 15.36-12.8h17.41c4.791 0 9.088 1.853 11.91 4.741Zm41.875-103.439c-1.258 7.03-2.785 13.967-4.572 20.799-1.9.705-4.001 1.098-6.206 1.098h-122.88c-8.448 0-15.36 5.761-15.36 12.801 0 7.039 6.912 12.8 15.36 12.8h6.655c8.449 0 15.361 5.759 15.361 12.799 0 7.04-6.912 12.8-15.361 12.8h-83.456c-8.447 0-15.359 5.76-15.359 12.8 0 7.04 6.912 12.801 15.359 12.801h100.353c8.448 0 15.359 5.76 15.359 12.8 0 7.04-6.911 12.799-15.359 12.799H403.376c-8.448 0-15.36 5.76-15.36 12.8 0 7.04 6.912 12.8 15.36 12.8h107.52c8.448 0 15.36 5.761 15.36 12.801 0 7.039-6.912 12.8-15.36 12.8H249.775c-8.447 0-15.359-5.761-15.359-12.8 0-7.04 6.912-12.801 15.359-12.801h97.792c8.449 0 15.361-5.76 15.361-12.8 0-7.04-6.912-12.8-15.361-12.8h-36.863c-8.448 0-15.36-5.759-15.36-12.799 0-7.04 6.912-12.8 15.36-12.8h-.513c8.449 0 15.361-5.761 15.361-12.801s-6.912-12.8-15.361-12.8H193.968c-8.448 0-15.361-5.76-15.361-12.8 0-7.04 6.913-12.799 15.361-12.799h201.216c8.448 0 15.36-5.761 15.36-12.8 0-7.04-6.912-12.801-15.36-12.801h-23.552c-8.448 0-15.36-5.76-15.36-12.8 0-7.04 6.912-12.8 15.36-12.8h261.12c4.189 0 8 1.417 10.778 3.703Zm-8.669-131.501c-5.233 2.046-8.88 6.485-8.88 11.598 0 7.04 6.912 12.801 15.36 12.801h.097c1.861 8.458 3.328 17.064 4.383 25.797-.873-.13-1.772-.198-2.688-.198h-61.374c-8.447 0-15.359-5.759-15.359-12.799 0-7.04 6.912-12.8 15.359-12.8h3.774c8.448 0 15.36-5.761 15.36-12.801s-6.912-12.8-15.36-12.8H422.36c-8.448 0-15.36-5.76-15.36-12.8 0-7.04 6.912-12.799 15.36-12.799h90.469c8.448 0 15.36-5.76 15.36-12.8 0-7.04-6.912-12.801-15.36-12.801h-.19c-8.447 0-15.359-5.76-15.359-12.8 0-7.04 6.912-12.8 15.359-12.8h82.366c7.286 9.91 13.918 20.331 19.832 31.199-1.69 2.055-2.68 4.537-2.68 7.202 0 6.201 5.363 11.41 12.415 12.562 3.89 8.779 7.329 17.802 10.289 27.039Zm-95.485-134.339c3.628 2.739 7.186 5.567 10.669 8.481.111.549.168 1.113.168 1.688 0 5.632-5.529 10.239-12.288 10.239H414.636c-6.759 0-12.288-4.607-12.288-10.239 0-5.633 5.529-10.24 12.288-10.24h123.289c.491 0 .975.024 1.451.071Zm-27.92-18.504H377.772c-6.758 0-12.288-4.608-12.288-10.239 0-5.633 5.53-10.241 12.288-10.241h86.016c.944 0 1.864-.09 2.748-.26 15.685 5.567 30.708 12.53 44.92 20.74ZM647.68 362.224c.08 2.716.12 5.441.12 8.176 0 6.048-.197 12.051-.585 18.001H522.4c-8.448 0-15.36-5.76-15.36-12.8 0-7.04 6.912-12.801 15.36-12.801h120.733c1.581 0 3.108-.202 4.547-.576ZM163.35 541.401c-6.588-8.159-12.714-16.706-18.34-25.601h53.909c8.448 0 15.36 5.761 15.36 12.801s-6.912 12.8-15.36 12.8H163.35Zm-58.274-204.8c1.073-8.666 2.552-17.207 4.419-25.601h23.664c8.449 0 15.361 5.76 15.361 12.8 0 7.04-6.912 12.801-15.361 12.801h-28.083Zm271.877-183.809c-5.632 0-10.24 4.607-10.24 10.24 0 5.632 4.608 10.239 10.24 10.239 5.632 0 10.24-4.607 10.24-10.239 0-5.633-4.608-10.24-10.24-10.24ZM330.92 133.6c7.04 0 12.8-5.76 12.8-12.8 0-7.04-5.76-12.8-12.8-12.8-7.04 0-12.8 5.76-12.8 12.8 0 7.04 5.76 12.8 12.8 12.8Zm77.825 99.84c8.447 0 15.359-5.76 15.359-12.8 0-7.04-6.912-12.8-15.359-12.8h-17.409c-8.448 0-15.36 5.76-15.36 12.8 0 7.04 6.912 12.8 15.36 12.8h17.409Zm57.814-24.24c-7.039 0-12.8 5.76-12.8 12.8 0 7.04 5.761 12.8 12.8 12.8 7.04 0 12.801-5.76 12.801-12.8 0-7.04-5.761-12.8-12.801-12.8Zm-211.799 153c7.039 0 12.8 5.76 12.8 12.8 0 7.04-5.761 12.8-12.8 12.8-7.04 0-12.801-5.76-12.801-12.8 0-7.04 5.761-12.8 12.801-12.8Z" clip-rule="evenodd"/>
  <path fill="url(#c)" fill-rule="evenodd" d="M240.667 133.6c16.489-9.402 34.055-17.132 52.468-22.957 3.666 2.344 6.041 6.031 6.041 10.157 0 7.04-6.912 12.8-15.36 12.8h-43.149Zm-64.749 51.303c9.468-10.178 19.706-19.63 30.621-28.264h123.357c8.448 0 15.36 5.761 15.36 12.8 0 7.04-6.912 12.801-15.36 12.801h-107.52c-8.448 0-15.36 5.76-15.36 12.8 0 7.04 6.912 12.8 15.36 12.8h130.048c8.448 0 15.359 5.759 15.359 12.799 0 7.04-6.911 12.8-15.359 12.8H252.071c-8.447 0-15.359 5.761-15.359 12.801s6.912 12.8 15.359 12.8h83.456c8.449 0 15.361 5.76 15.361 12.8 0 7.04-6.912 12.799-15.361 12.799h-6.655c-8.448 0-15.36 5.761-15.36 12.8 0 7.04 6.912 12.801 15.36 12.801h122.88c8.447 0 15.359 5.76 15.359 12.8 0 7.04-6.912 12.8-15.359 12.8h-261.12c-8.448 0-15.36-5.76-15.36-12.8 0-7.04 6.912-12.8 15.36-12.8h23.552c8.448 0 15.36-5.761 15.36-12.801 0-7.039-6.912-12.8-15.36-12.8h-97.409c2.896-8.737 6.222-17.279 9.954-25.599h2.462c8.449 0 15.361-5.76 15.361-12.8 0-4.166-2.421-7.885-6.149-10.226 5.56-9.786 11.709-19.193 18.399-28.174h9.765c8.449 0 15.361-5.76 15.361-12.8 0-4.114-2.361-7.791-6.01-10.137Zm-70.246 223.799c2.179-2.21 3.491-5.034 3.491-8.101 0-3.882-2.103-7.376-5.405-9.729-.502-6.758-.758-13.585-.758-20.472 0-2.743.041-5.477.121-8.2H208.68c8.448 0 15.359 5.76 15.359 12.8 0 7.04-6.911 12.8-15.359 12.8h-.189c-8.449 0-15.361 5.761-15.361 12.801s6.912 12.8 15.361 12.8h90.469c8.448 0 15.359 5.759 15.359 12.799 0 7.04-6.911 12.8-15.359 12.8H135.786c-8.448 0-15.36 5.76-15.36 12.8 0 7.04 6.912 12.801 15.36 12.801h3.774c8.447 0 15.359 5.76 15.359 12.8 0 7.04-6.912 12.799-15.359 12.799h-8.87c-12.37-25.22-20.956-52.633-25.018-81.498Zm110.546 182.771c-9.722-7.012-18.964-14.651-27.665-22.856.267-.011.536-.017.806-.017h17.409c8.448 0 15.36 5.761 15.36 12.801 0 4.076-2.318 7.724-5.91 10.072Zm261.389 31.503c-31.56 12.783-66.061 19.823-102.206 19.823-27.849 0-54.722-4.179-80.026-11.945-.021-.269-.031-.54-.031-.814 0-7.04 6.912-12.8 15.36-12.8h154.112c5.32 0 10.032 2.285 12.791 5.736Zm124.048-100.834c-4.841 7.204-10.017 14.165-15.506 20.859h-13.814c-8.448 0-15.36-5.76-15.36-12.8 0-7.04 6.912-12.8 15.36-12.8h17.41c4.791 0 9.088 1.853 11.91 4.741Zm41.875-103.439c-1.258 7.03-2.785 13.967-4.572 20.799-1.9.705-4.001 1.098-6.206 1.098h-122.88c-8.448 0-15.36 5.761-15.36 12.801 0 7.039 6.912 12.8 15.36 12.8h6.655c8.449 0 15.361 5.759 15.361 12.799 0 7.04-6.912 12.8-15.361 12.8h-83.456c-8.447 0-15.359 5.76-15.359 12.8 0 7.04 6.912 12.801 15.359 12.801h100.353c8.448 0 15.359 5.76 15.359 12.8 0 7.04-6.911 12.799-15.359 12.799H403.376c-8.448 0-15.36 5.76-15.36 12.8 0 7.04 6.912 12.8 15.36 12.8h107.52c8.448 0 15.36 5.761 15.36 12.801 0 7.039-6.912 12.8-15.36 12.8H249.775c-8.447 0-15.359-5.761-15.359-12.8 0-7.04 6.912-12.801 15.359-12.801h97.792c8.449 0 15.361-5.76 15.361-12.8 0-7.04-6.912-12.8-15.361-12.8h-36.863c-8.448 0-15.36-5.759-15.36-12.799 0-7.04 6.912-12.8 15.36-12.8h-.513c8.449 0 15.361-5.761 15.361-12.801s-6.912-12.8-15.361-12.8H193.968c-8.448 0-15.361-5.76-15.361-12.8 0-7.04 6.913-12.799 15.361-12.799h201.216c8.448 0 15.36-5.761 15.36-12.8 0-7.04-6.912-12.801-15.36-12.801h-23.552c-8.448 0-15.36-5.76-15.36-12.8 0-7.04 6.912-12.8 15.36-12.8h261.12c4.189 0 8 1.417 10.778 3.703Zm-8.669-131.501c-5.233 2.046-8.88 6.485-8.88 11.598 0 7.04 6.912 12.801 15.36 12.801h.097c1.861 8.458 3.328 17.064 4.383 25.797-.873-.13-1.772-.198-2.688-.198h-61.374c-8.447 0-15.359-5.759-15.359-12.799 0-7.04 6.912-12.8 15.359-12.8h3.774c8.448 0 15.36-5.761 15.36-12.801s-6.912-12.8-15.36-12.8H422.36c-8.448 0-15.36-5.76-15.36-12.8 0-7.04 6.912-12.799 15.36-12.799h90.469c8.448 0 15.36-5.76 15.36-12.8 0-7.04-6.912-12.801-15.36-12.801h-.19c-8.447 0-15.359-5.76-15.359-12.8 0-7.04 6.912-12.8 15.359-12.8h82.366c7.286 9.91 13.918 20.331 19.832 31.199-1.69 2.055-2.68 4.537-2.68 7.202 0 6.201 5.363 11.41 12.415 12.562 3.89 8.779 7.329 17.802 10.289 27.039Zm-95.485-134.339c3.628 2.739 7.186 5.567 10.669 8.481.111.549.168 1.113.168 1.688 0 5.632-5.529 10.239-12.288 10.239H414.636c-6.759 0-12.288-4.607-12.288-10.239 0-5.633 5.529-10.24 12.288-10.24h123.289c.491 0 .975.024 1.451.071Zm-27.92-18.504H377.772c-6.758 0-12.288-4.608-12.288-10.239 0-5.633 5.53-10.241 12.288-10.241h86.016c.944 0 1.864-.09 2.748-.26 15.685 5.567 30.708 12.53 44.92 20.74ZM647.68 362.224c.08 2.716.12 5.441.12 8.176 0 6.048-.197 12.051-.585 18.001H522.4c-8.448 0-15.36-5.76-15.36-12.8 0-7.04 6.912-12.801 15.36-12.801h120.733c1.581 0 3.108-.202 4.547-.576ZM163.35 541.401c-6.588-8.159-12.714-16.706-18.34-25.601h53.909c8.448 0 15.36 5.761 15.36 12.801s-6.912 12.8-15.36 12.8H163.35Zm-58.274-204.8c1.073-8.666 2.552-17.207 4.419-25.601h23.664c8.449 0 15.361 5.76 15.361 12.8 0 7.04-6.912 12.801-15.361 12.801h-28.083Zm271.877-183.809c-5.632 0-10.24 4.607-10.24 10.24 0 5.632 4.608 10.239 10.24 10.239 5.632 0 10.24-4.607 10.24-10.239 0-5.633-4.608-10.24-10.24-10.24ZM330.92 133.6c7.04 0 12.8-5.76 12.8-12.8 0-7.04-5.76-12.8-12.8-12.8-7.04 0-12.8 5.76-12.8 12.8 0 7.04 5.76 12.8 12.8 12.8Zm77.825 99.84c8.447 0 15.359-5.76 15.359-12.8 0-7.04-6.912-12.8-15.359-12.8h-17.409c-8.448 0-15.36 5.76-15.36 12.8 0 7.04 6.912 12.8 15.36 12.8h17.409Zm57.814-24.24c-7.039 0-12.8 5.76-12.8 12.8 0 7.04 5.761 12.8 12.8 12.8 7.04 0 12.801-5.76 12.801-12.8 0-7.04-5.761-12.8-12.801-12.8Zm-211.799 153c7.039 0 12.8 5.76 12.8 12.8 0 7.04-5.761 12.8-12.8 12.8-7.04 0-12.801-5.76-12.801-12.8 0-7.04 5.761-12.8 12.801-12.8Z" clip-rule="evenodd"/>
  <path fill="url(#d)" fill-opacity=".7" fill-rule="evenodd" d="M643.147 319.018c-.436-2.288-.902-4.566-1.395-6.833-1.847-8.482-4.089-16.816-6.705-24.983-2.829-8.83-6.097-17.465-9.777-25.878-3.124-7.14-6.545-14.12-10.247-20.925-5.744-10.557-12.166-20.692-19.207-30.346-13.159-18.042-28.48-34.405-45.584-48.709-3.269-2.734-6.603-5.392-9.999-7.973-.224-.17-.447-.339-.671-.508-8.897-6.717-18.219-12.901-27.919-18.504-13.613-7.863-27.97-14.583-42.938-20.028C439.652 103.764 408.293 98 375.587 98c-28.672 0-56.31 4.43-82.266 12.643l-.335.106c-18.29 5.813-35.744 13.506-52.133 22.851-4.707 2.684-9.327 5.505-13.853 8.456 62.057-21.397 150.526-28.589 258.251 26.127 87.021 44.189 133.291 101.927 157.896 150.835Z" clip-rule="evenodd"/>
  <path fill="url(#e)" fill-rule="evenodd" d="M586.073 542.717c-28.697 34.999-65.941 62.72-108.542 79.976-31.56 12.783-66.062 19.823-102.206 19.823-2.173 0-4.34-.026-6.5-.076-11.204-.796-22.223-2.238-33.02-4.289-42.598-8.046-81.856-25.549-115.527-50.262-4.907-3.605-9.71-7.315-14.356-11.233-21.143-17.66-39.727-38.298-55.023-61.339-12.111-18.182-22.187-37.827-29.965-58.622-3.393-9.091-6.317-18.391-8.823-27.9-4.594-17.608-7.517-35.947-8.665-54.704-.209-3.239-.366-6.478-.418-9.718-.01-.257-.02-.515-.028-.773.01-.407.02-.814.031-1.221.246-8.798.908-17.491 1.969-26.061.999-8.075 2.352-16.041 4.042-23.881.124-.574.25-1.147.377-1.72 2.024-9.101 4.503-18.031 7.413-26.764 2.864-8.597 6.146-17.004 9.82-25.196 3.635-8.105 7.655-16 12.036-23.662 5.465-9.557 11.493-18.752 18.037-27.538 3.453-4.635 7.049-9.156 10.782-13.557 37.009 20.444 74.005 59.833 101.582 132.128 43.329 113.586 121.061 181.77 209.129 194.988 44.23 6.706 91.079-.482 137.468-22.714-4.353 8.138-9.106 16.028-14.234 23.645-4.805 7.138-9.939 14.035-15.379 20.67Z" clip-rule="evenodd" opacity=".55"/>
  <path fill="#6D2812" fill-opacity=".03" fill-rule="evenodd" d="M375 750c-50.527 0-99.662-9.947-146.04-29.565-44.676-18.894-84.756-45.901-119.124-80.269-34.3653-34.364-61.373-74.445-80.273-119.129C9.94693 474.661 0 425.528 0 375.001c0-50.526 9.94639-99.661 29.5635-146.039C48.4619 184.28 75.4696 144.2 109.836 109.834c34.365-34.3644 74.445-61.3716 119.127-80.2716C275.344 9.94638 324.478 0 375 0c50.525 0 99.659 9.94638 146.038 29.5635 44.68 18.8978 84.76 45.9044 119.127 80.2705 34.368 34.368 61.376 74.451 80.274 119.135C740.054 275.341 750 324.473 750 375.001c0 50.525-9.947 99.66-29.564 146.039-18.894 44.675-45.9 84.753-80.268 119.122-34.368 34.368-74.449 61.377-119.13 80.275C474.66 740.054 425.525 750 375 750Z" clip-rule="evenodd"/>
  <path fill="#6D2812" fill-opacity=".03" fill-rule="evenodd" d="M375 712.088c-45.424 0-89.59-8.939-131.27-26.569-40.158-16.984-76.188-41.262-107.086-72.16-30.896-30.895-55.1762-66.926-72.1644-107.091-17.6295-41.677-26.568-85.842-26.568-131.267s8.9385-89.59 26.568-131.27c16.9876-40.163 41.2674-76.193 72.1634-107.089 30.895-30.896 66.926-55.1743 107.089-72.1625C285.413 46.8501 329.578 37.9116 375 37.9116c45.423 0 89.589 8.939 131.269 26.5685 40.161 16.986 76.191 41.2649 107.088 72.1619 30.899 30.899 55.178 66.93 72.165 107.094 17.628 41.674 26.566 85.838 26.566 131.265 0 45.425-8.939 89.59-26.569 131.27-16.983 40.156-41.26 76.185-72.159 107.085-30.897 30.897-66.928 55.177-107.091 72.164-41.68 17.629-85.845 26.568-131.269 26.568Z" clip-rule="evenodd"/>
  <path fill="#6D2812" fill-opacity=".03" fill-rule="evenodd" d="M375 674.177c-40.323 0-79.519-7.932-116.501-23.574-35.639-15.073-67.618-36.623-95.048-64.052-27.427-27.426-48.978-59.406-64.0543-95.051-15.6429-36.98-23.5735-76.177-23.5735-116.499 0-40.323 7.9306-79.52 23.5735-116.501 15.0763-35.644 36.6263-67.623 64.0543-95.05 27.425-27.426 59.405-48.977 95.05-64.0533C295.483 83.7549 334.679 75.8232 375 75.8232c40.322 0 79.519 7.9317 116.5 23.5735 35.642 15.0743 67.621 36.6253 95.05 64.0523 27.429 27.43 48.98 59.411 64.054 95.055 15.642 36.975 23.573 76.172 23.573 116.497 0 40.323-7.931 79.52-23.574 116.501-15.072 35.638-36.623 67.617-64.051 95.047-27.427 27.427-59.406 48.978-95.052 64.054-36.981 15.642-76.178 23.574-116.5 23.574Z" clip-rule="evenodd"/>
  <path fill="#6D2812" fill-opacity=".03" fill-rule="evenodd" d="M375 636.265c-35.222 0-69.449-6.924-101.732-20.579-31.122-13.162-59.05-31.985-83.009-55.943-23.959-23.957-42.781-51.886-55.946-83.012-13.654-32.282-20.578-66.509-20.578-101.73 0-35.222 6.924-69.45 20.578-101.732 13.165-31.125 31.987-59.054 55.945-83.012 23.957-23.957 51.886-42.779 83.011-55.944 32.284-13.655 66.511-20.578 101.731-20.578 35.221 0 69.448 6.923 101.732 20.578 31.124 13.164 59.052 31.986 83.011 55.944 23.959 23.96 42.781 51.89 55.944 83.014 13.655 32.28 20.578 66.507 20.578 101.73 0 35.221-6.924 69.449-20.579 101.731-13.162 31.122-31.984 59.051-55.943 83.01-23.956 23.957-51.885 42.779-83.011 55.945-32.283 13.654-66.51 20.578-101.732 20.578Z" clip-rule="evenodd"/>
  <path fill="#6D2812" fill-opacity=".03" fill-rule="evenodd" d="M375 598.354c-30.119 0-59.378-5.916-86.962-17.584-26.605-11.252-50.484-27.347-70.972-47.835-20.489-20.487-36.582-44.366-47.837-70.972-11.667-27.585-17.582-56.843-17.582-86.962 0-30.121 5.915-59.379 17.582-86.964 11.254-26.606 27.349-50.484 47.837-70.972 20.487-20.487 44.366-36.582 70.972-47.835 27.585-11.667 56.843-17.584 86.962-17.584s59.379 5.917 86.963 17.584c26.605 11.253 50.484 27.347 70.972 47.835 20.488 20.489 36.583 44.368 47.836 70.973 11.667 27.584 17.583 56.842 17.583 86.963 0 30.119-5.916 59.377-17.584 86.962-11.252 26.605-27.347 50.483-47.835 70.972-20.487 20.487-44.366 36.581-70.972 47.835-27.584 11.668-56.844 17.584-86.963 17.584Z" clip-rule="evenodd"/>
  <path fill="#6D2812" fill-opacity=".03" fill-rule="evenodd" d="M375 560.442c-25.017 0-49.307-4.909-72.194-14.589-22.087-9.341-41.914-22.707-58.933-39.725-17.018-17.019-30.384-36.847-39.726-58.934-9.681-22.886-14.589-47.176-14.589-72.193 0-25.019 4.908-49.308 14.589-72.194 9.342-22.087 22.708-41.916 39.726-58.934 17.019-17.019 36.846-30.384 58.933-39.727 22.887-9.679 47.176-14.588 72.194-14.588s49.308 4.909 72.194 14.589c22.087 9.342 41.915 22.707 58.933 39.726 17.019 17.018 30.385 36.847 39.726 58.934 9.681 22.886 14.589 47.175 14.589 72.194 0 25.017-4.908 49.307-14.589 72.193-9.341 22.087-22.707 41.915-39.726 58.934-17.018 17.018-36.846 30.383-58.933 39.725-22.886 9.68-47.176 14.589-72.194 14.589Z" clip-rule="evenodd"/>
  <defs>
    <radialGradient id="a" cx="0" cy="0" r="1" gradientTransform="rotate(90 2.5 372.9) scale(272.4)" gradientUnits="userSpaceOnUse">
      <stop stop-color="#EFA08F" stop-opacity=".61"/>
      <stop offset="1" stop-color="#C97324" stop-opacity=".82"/>
    </radialGradient>
    <radialGradient id="b" cx="0" cy="0" r="1" gradientTransform="matrix(0 272.399 -272.4 0 375.4 370.399)" gradientUnits="userSpaceOnUse">
      <stop stop-color="#EFA08F"/>
      <stop offset=".5" stop-color="#C97324" stop-opacity=".95"/>
      <stop offset="1" stop-color="#6D2812" stop-opacity=".46"/>
    </radialGradient>
    <radialGradient id="c" cx="0" cy="0" r="1" gradientTransform="matrix(0 272.399 -272.4 0 375.4 370.399)" gradientUnits="userSpaceOnUse">
      <stop stop-color="#EFA08F"/>
      <stop offset=".5" stop-color="#C97324" stop-opacity=".95"/>
      <stop offset="1" stop-color="#6D2812" stop-opacity=".46"/>
    </radialGradient>
    <linearGradient id="d" x1="630.624" x2="330.429" y1="-60.0633" y2="418.795" gradientUnits="userSpaceOnUse">
      <stop stop-color="#FFDFAE" stop-opacity=".74"/>
      <stop offset="1" stop-color="#FFD5AE" stop-opacity=".49"/>
    </linearGradient>
    <linearGradient id="e" x1="421.257" x2="273.71" y1="605.659" y2="67.5611" gradientUnits="userSpaceOnUse">
      <stop stop-color="#7F4612"/>
      <stop offset="1" stop-color="#D5743D" stop-opacity=".3"/>
    </linearGradient>
  </defs>
</svg>
