<svg width="247" height="96" fill="none" xmlns="http://www.w3.org/2000/svg">
  <path fill-rule="evenodd" clip-rule="evenodd" d="M226 0h16.78a4.23 4.23 0 0 1 0 8.45h-17.93L210.59 94h-13.05l-16.26-68.6L164.51 94h-13.95L136.3 8.45H109V0h117ZM0 91.6c0-2.4 1.95-4.36 4.36-4.36h19.16V1.84h22.91c9.56 0 16.56 2 21 6.02 4.52 4 6.78 9.55 6.78 16.64 0 2.39-.39 4.69-1.15 6.9a19.4 19.4 0 0 1-3.08 5.9 20.79 20.79 0 0 1-4.73 4.73 18.76 18.76 0 0 1-5.89 2.82c2.3.34 4.6 1.02 6.91 2.05a19.23 19.23 0 0 1 6.15 4.35 20.2 20.2 0 0 1 4.35 6.78 26.38 26.38 0 0 1 1.66 9.86c0 4.7-.9 8.7-2.69 12.03a23.18 23.18 0 0 1-5.8 7.32H109c1.48-.1 2.96-.34 4.44-.71 2.05-.6 3.89-1.54 5.5-2.82a13.63 13.63 0 0 0 4.1-5.12 17.94 17.94 0 0 0 1.54-7.8c0-3.25-.43-5.94-1.28-8.07a13.86 13.86 0 0 0-3.84-5.63 24.5 24.5 0 0 0-6.78-4.35 321.83 321.83 0 0 0-10.12-4.36c-6.9-2.81-12.03-6.23-15.36-10.24-3.24-4-4.86-8.96-4.86-14.84 0-3.25.6-6.28 1.8-9.1a19.95 19.95 0 0 1 5.24-7.42c2.3-2.13 5.08-3.8 8.32-4.99A33.52 33.52 0 0 1 109 0v8.45c-4.62.06-8.43 1.2-11.43 3.45-3.07 2.22-4.6 5.76-4.6 10.63a18 18 0 0 0 .89 5.89c.6 1.7 1.58 3.24 2.94 4.6a28.15 28.15 0 0 0 5.64 3.97 78.6 78.6 0 0 0 8.57 3.71 96.2 96.2 0 0 1 9.47 4.23 30.99 30.99 0 0 1 7.81 5.63 23.1 23.1 0 0 1 5.38 8.06c1.36 3.16 2.05 7 2.05 11.52 0 3.5-.73 6.83-2.18 9.99a24.67 24.67 0 0 1-5.89 8.32 27.83 27.83 0 0 1-8.96 5.5 30.66 30.66 0 0 1-9.69 2v.01H4.36A4.36 4.36 0 0 1 0 91.6Zm34.4-42.53v36.61h12.8c2.56 0 5-.3 7.3-.9 2.39-.6 4.52-1.57 6.4-2.94a15.74 15.74 0 0 0 4.48-5.5c1.1-2.3 1.66-5.12 1.66-8.45 0-6.15-1.7-10.8-5.12-13.95-3.41-3.25-8.5-4.87-15.23-4.87H34.4Zm0-39.68v31.87h11.78c5.88 0 10.2-1.45 12.92-4.35 2.82-2.9 4.23-6.91 4.23-12.03 0-5.46-1.58-9.39-4.74-11.78-3.07-2.47-7.2-3.7-12.41-3.7H34.4Zm180.58-.94-11.04 73.9-15.24-68.6h-13.95L158.5 82.6 147.33 8.45h67.65Z" fill="#FFFFFF"/>
</svg>
