<svg xmlns="http://www.w3.org/2000/svg" fill="none" viewBox="0 0 1668 1700">
  <path fill="#FF4D5A" d="M2.35115 73.7424C-6.5106 36.0799 22.0652 0 60.7562 0H537.479c27.843 0 52.028 19.1547 58.405 46.2576L967.649 1626.26c8.862 37.66-19.714 73.74-58.405 73.74H432.521c-27.843 0-52.028-19.15-58.405-46.26L2.35115 73.7424Zm697.99985 0C691.489 36.0799 720.065 0 758.756 0h476.724c27.84 0 52.03 19.1547 58.4 46.2576L1665.65 1626.26c8.86 37.66-19.72 73.74-58.41 73.74h-476.72c-27.84 0-52.03-19.15-58.4-46.26L700.351 73.7424Z"/>
</svg>
