<svg width="1301" height="952" viewBox="0 0 1301 952" fill="none" xmlns="http://www.w3.org/2000/svg">
<path fill-rule="evenodd" clip-rule="evenodd" d="M1043 63.5C1043 64.8805 1041.88 66 1040.5 66C1039.12 66 1038 64.8805 1038 63.5C1038 62.1195 1039.12 61 1040.5 61C1041.88 61 1043 62.1195 1043 63.5ZM344 43.5C344 44.8805 342.88 46 341.5 46C340.12 46 339 44.8805 339 43.5C339 42.1195 340.12 41 341.5 41C342.88 41 344 42.1195 344 43.5ZM199 572.5C199 573.88 197.88 575 196.5 575C195.12 575 194 573.88 194 572.5C194 571.12 195.12 570 196.5 570C197.88 570 199 571.12 199 572.5ZM241 391.5C241 392.881 239.881 394 238.5 394C237.119 394 236 392.881 236 391.5C236 390.119 237.119 389 238.5 389C239.881 389 241 390.119 241 391.5ZM905 92.5C905 93.881 903.881 95 902.5 95C901.119 95 900 93.881 900 92.5C900 91.119 901.119 90 902.5 90C903.881 90 905 91.119 905 92.5ZM681 12.5C681 13.881 679.881 15 678.5 15C677.119 15 676 13.881 676 12.5C676 11.119 677.119 10 678.5 10C679.881 10 681 11.119 681 12.5ZM426 213.5C426 214.881 424.881 216 423.5 216C422.119 216 421 214.881 421 213.5C421 212.119 422.119 211 423.5 211C424.881 211 426 212.119 426 213.5ZM475 63.5C475 64.881 473.881 66 472.5 66C471.119 66 470 64.881 470 63.5C470 62.119 471.119 61 472.5 61C473.881 61 475 62.119 475 63.5ZM875 2.5C875 3.881 873.881 5 872.5 5C871.119 5 870 3.881 870 2.5C870 1.119 871.119 0 872.5 0C873.881 0 875 1.119 875 2.5ZM597.063 159.056C596.756 157.71 597.598 156.37 598.944 156.063C600.29 155.756 601.629 156.598 601.937 157.944C602.244 159.289 601.402 160.629 600.056 160.937C598.71 161.244 597.371 160.402 597.063 159.056ZM1018.06 249.056C1017.76 247.71 1018.6 246.37 1019.94 246.063C1021.29 245.756 1022.63 246.598 1022.94 247.943C1023.24 249.29 1022.4 250.629 1021.06 250.937C1019.71 251.244 1018.37 250.402 1018.06 249.056ZM315.063 460.056C314.756 458.711 315.598 457.37 316.944 457.063C318.29 456.756 319.63 457.598 319.937 458.944C320.244 460.29 319.402 461.629 318.056 461.937C316.71 462.244 315.37 461.402 315.063 460.056ZM441.064 663.056C440.756 661.71 441.597 660.37 442.944 660.063C444.29 659.756 445.63 660.598 445.936 661.944C446.244 663.289 445.403 664.63 444.056 664.937C442.71 665.244 441.37 664.403 441.064 663.056ZM358.063 793.056C357.756 791.71 358.598 790.37 359.944 790.063C361.289 789.756 362.629 790.598 362.937 791.943C363.244 793.29 362.402 794.629 361.056 794.937C359.711 795.244 358.371 794.402 358.063 793.056ZM678.063 781.056C677.756 779.71 678.598 778.37 679.944 778.063C681.289 777.756 682.629 778.598 682.937 779.943C683.244 781.29 682.402 782.629 681.056 782.937C679.711 783.244 678.371 782.402 678.063 781.056ZM849.063 711.056C848.756 709.71 849.598 708.371 850.944 708.063C852.289 707.756 853.629 708.598 853.937 709.943C854.244 711.29 853.402 712.629 852.056 712.937C850.711 713.244 849.371 712.402 849.063 711.056ZM990.063 880.056C989.756 878.711 990.598 877.37 991.944 877.063C993.29 876.756 994.63 877.598 994.937 878.944C995.244 880.289 994.402 881.629 993.056 881.937C991.71 882.244 990.37 881.402 990.063 880.056ZM1173.06 488.056C1172.76 486.711 1173.6 485.371 1174.94 485.063C1176.29 484.756 1177.63 485.598 1177.94 486.944C1178.24 488.289 1177.4 489.629 1176.06 489.937C1174.71 490.244 1173.37 489.402 1173.06 488.056ZM1296.06 304.056C1295.76 302.711 1296.6 301.371 1297.94 301.063C1299.29 300.756 1300.63 301.598 1300.94 302.944C1301.24 304.289 1300.4 305.629 1299.06 305.937C1297.71 306.244 1296.37 305.402 1296.06 304.056ZM807 816.5C807 817.881 805.881 819 804.5 819C803.119 819 802 817.881 802 816.5C802 815.119 803.119 814 804.5 814C805.881 814 807 815.119 807 816.5ZM733 949.5C733 950.881 731.881 952 730.5 952C729.119 952 728 950.881 728 949.5C728 948.119 729.119 947 730.5 947C731.881 947 733 948.119 733 949.5ZM977 692.5C977 693.881 975.881 695 974.5 695C973.119 695 972 693.881 972 692.5C972 691.119 973.119 690 974.5 690C975.881 690 977 691.119 977 692.5ZM233 708.5C233 709.881 231.881 711 230.5 711C229.119 711 228 709.881 228 708.5C228 707.119 229.119 706 230.5 706C231.881 706 233 707.119 233 708.5ZM1205 404.5C1205 405.881 1203.88 407 1202.5 407C1201.12 407 1200 405.881 1200 404.5C1200 403.119 1201.12 402 1202.5 402C1203.88 402 1205 403.119 1205 404.5ZM497 888.5C497 889.88 495.88 891 494.5 891C493.12 891 492 889.88 492 888.5C492 887.12 493.12 886 494.5 886C495.88 886 497 887.12 497 888.5ZM5 858.5C5 859.88 3.8805 861 2.5 861C1.1195 861 0 859.88 0 858.5C0 857.12 1.1195 856 2.5 856C3.8805 856 5 857.12 5 858.5ZM65 218.5C65 219.88 63.8805 221 62.5 221C61.1195 221 60 219.88 60 218.5C60 217.12 61.1195 216 62.5 216C63.8805 216 65 217.12 65 218.5ZM1183 835.5C1183 836.88 1181.88 838 1180.5 838C1179.12 838 1178 836.88 1178 835.5C1178 834.12 1179.12 833 1180.5 833C1181.88 833 1183 834.12 1183 835.5ZM1096 627.5C1096 628.88 1094.88 630 1093.5 630C1092.12 630 1091 628.88 1091 627.5C1091 626.12 1092.12 625 1093.5 625C1094.88 625 1096 626.12 1096 627.5ZM1140 240.5C1140 241.88 1138.88 243 1137.5 243C1136.12 243 1135 241.88 1135 240.5C1135 239.12 1136.12 238 1137.5 238C1138.88 238 1140 239.12 1140 240.5ZM618 98.5C618 99.8805 616.88 101 615.5 101C614.12 101 613 99.8805 613 98.5C613 97.1195 614.12 96 615.5 96C616.88 96 618 97.1195 618 98.5Z" fill="white"/>
</svg>
