<svg xmlns="http://www.w3.org/2000/svg" width="512" height="512">
  <path d="M115.2803.8693c4.2365.0023 8.473-.0013 12.7096-.004 8.2454-.0044 16.4909-.0035 24.7364-.0006 6.7128.0023 13.4256.0026 20.1384.0015l2.921-.0005 5.8788-.001c18.269-.0028 36.5378.0004 54.8067.0058 15.606.0045 31.212.0037 46.8181-.0009a118118.897 118118.897 0 0 1 60.5151-.0034l2.9056.0005c6.6914.0008 13.3827-.0006 20.074-.003 8.1733-.0028 16.3465-.002 24.5197.0033 4.1536.0026 8.3072.0037 12.4608.0003 15.4365-.0112 30.87.0473 46.302.4533l3.5302.0666C471.3847 1.9539 484.0115 9.3409 496 22c8.8742 9.8936 14.0426 20.3468 14.617 33.6744l.1139 2.4207c.5746 14.2773.4103 28.5872.3998 42.8734-.0023 4.5986.0013 9.1972.004 13.7957.0044 8.9842.0035 17.9683.0006 26.9524-.0023 7.3077-.0026 14.6155-.0015 21.9232l.0005 3.163.001 6.3633c.0028 19.8456-.0005 39.6912-.0058 59.5368a95446.81 95446.81 0 0 0 .0009 50.9812 139267.7624 139267.7624 0 0 1 .0034 65.676l-.0005 3.1495c-.0008 7.291.0006 14.582.003 21.873.0028 8.8967.002 17.7933-.0033 26.69-.0026 4.531-.0037 9.062-.0003 13.593.0208 31.2578.0208 31.2578-.504 42.6795l-.0873 2.1427C509.6683 474.467 500.3565 486.8562 490 497c-10.7466 9.3563-22.8414 14.117-37.0739 14.1314l-2.0966.0062c-2.3176.0057-4.6352.0043-6.9528.0028a10302.47 10302.47 0 0 0-5.0365.009c-4.6132.0081-9.2264.0099-13.8396.0106-4.9756.0019-9.9513.0094-14.927.0162-10.8803.0136-21.7606.0196-32.641.024-6.7953.0028-13.5906.007-20.386.0115-18.8185.0122-37.637.0225-56.4556.0259l-3.6494.0006a991381030.405 991381030.405 0 0 1-10.9965.002l-3.6769.0007c-19.6556.004-39.311.0214-58.9666.0447-20.1857.0237-40.3713.0362-60.557.0373-11.3312.001-22.6624.0067-33.9936.0249-9.65.0154-19.2999.0205-28.9498.0122-4.9211-.0039-9.842-.003-14.7631.011-4.5112.0128-9.0222.0116-13.5335-.0005a741.1269 741.1269 0 0 0-4.8776.0098c-18.8687.095-34.4814-3.8556-48.5142-17.0524C9.9092 486.189 1.3815 472.8585.87 460.9825l-.007-3.7937-.008-2.121c-.0078-2.3632-.0083-4.7262-.0089-7.0894a10709.42 10709.42 0 0 0-.0133-5.1132c-.012-4.6978-.0176-9.3957-.0222-14.0935-.006-5.0616-.0175-10.1232-.0283-15.1848-.0245-12.2333-.0391-24.4666-.052-36.6998-.0037-3.4554-.0077-6.9108-.0118-10.3662-.0252-21.4566-.0473-42.9132-.0597-64.3698L.65 287.2356l-.0023-3.7447C.635 263.4834.6018 243.476.5601 223.4685c-.0424-20.5415-.066-41.083-.0712-61.6246-.0034-11.533-.0152-23.066-.0481-34.599A7387.515 7387.515 0 0 1 .413 97.77c.0052-5.0104.0023-10.0204-.0225-15.0307-.0226-4.5942-.0217-9.1878-.0028-13.782A461.5712 461.5712 0 0 0 .37 63.9927C.2186 46.2856 5.3171 31.833 17.75 18.75 27.9414 9.0218 40.3395 2.1218 54.5726 1.6881l1.9725-.062c2.1575-.0656 4.3151-.1236 6.4729-.1805l2.2786-.0636C81.958.9222 98.6137.8557 115.2803.8693ZM96 104c-7.3368 10.1663-9.1638 20.001-7.7227 32.3828 1.9035 10.4058 7.9729 18.9975 16.3477 25.2422 9.6524 6.4207 18.7802 8.6963 30.375 7.375 10.9715-2.7276 20.5348-9.8304 27-19 5.4016-9.6907 7.2821-19.389 4.8125-30.25-3.5863-12.3119-10.0269-21.02-21.2227-27.5586C127.9934 84.0965 107.9154 88.6486 96 104Zm184.7383 119.6992c-1.2024 1.5537-2.3836 3.1243-3.5313 4.7188L276 230h-1l-1-29h-65v223h64c.8258-7.7623.8258-7.7623 1.1448-15.4607l.0209-2.9038.0079-3.0735.0202-3.3255c.014-2.3674.026-4.7349.036-7.1023.0165-3.7606.0398-7.521.0649-11.2816.0704-10.6872.1307-21.3743.1821-32.0616a8422.157 8422.157 0 0 1 .1202-19.6614c.0159-2.482.0283-4.964.037-7.446.1466-41.5771.1466-41.5771 11.5613-54.086C297.5473 257.548 310.4884 256.2049 325 257c9.2502 1.6087 16.7401 6.0777 22.2812 13.7813 1.3235 2.0336 2.524 4.107 3.7188 6.2187l1.0938 1.9025c3.4867 6.833 3.4823 13.2298 3.4521 20.7872.0087 1.361.0192 2.7218.0313 4.0827.0277 3.6689.0313 7.3374.0303 11.0064.0031 3.8437.0288 7.6873.052 11.531.0404 7.267.0609 14.534.074 21.8012.0188 9.8282.069 19.6562.1172 29.4843.0752 15.4682.1088 30.9362.1493 46.4047h68c.0201-15.355.0402-30.71.0503-46.065a27989.02 27989.02 0 0 1 .0251-24.758c.0102-6.5453.0165-13.0906.0187-19.6359.0013-3.449.0041-6.898.0116-10.347.0274-14.2754-.0557-28.5443-.4273-42.815a1055.1476 1055.1476 0 0 1-.1009-4.2674C423.1091 255.1221 417.3973 234.8625 403 219l-1.8281-2.0703c-11.2259-12.0016-27.6038-20.302-44.0332-21.1226-3.7407-.0894-7.4821-.129-11.2237-.1572a347.7477 347.7477 0 0 1-4.787-.082c-24.2037-.5773-44.8153 9.5443-60.3897 28.1313ZM94 201v223h68V201H94Z" fill="#FFF"/>
</svg>
